ISO-10303-21;
HEADER;
FILE_DESCRIPTION (( 'STEP AP214' ),
    '1' );
FILE_NAME ('NoseCone.STEP',
    '2025-02-28T23:38:44',
    ( '' ),
    ( '' ),
    'SwSTEP 2.0',
    'SolidWorks 2024',
    '' );
FILE_SCHEMA (( 'AUTOMOTIVE_DESIGN' ));
ENDSEC;

DATA;
#1 = CARTESIAN_POINT ( 'NONE',  ( 0.6166829568150697938, 104.9210193540301219, 0.000000000000000000 ) ) ;
#2 = CARTESIAN_POINT ( 'NONE',  ( -0.5026003116208380694, 114.9934503533469297, 1.005200623241675917 ) ) ;
#3 = DIRECTION ( 'NONE',  ( 0.000000000000000000, 0.000000000000000000, 1.000000000000000000 ) ) ;
#4 = CARTESIAN_POINT ( 'NONE',  ( 5.821944985844387688, 100.9638734424734565, -11.64388997168877182 ) ) ;
#5 = CARTESIAN_POINT ( 'NONE',  ( -22.20062742315683479, 92.97224974267305697, -2.718792731283196696E-15 ) ) ;
#6 = CARTESIAN_POINT ( 'NONE',  ( 29.79724349199508282, 70.12809412042408042, 0.000000000000000000 ) ) ;
#7 = CARTESIAN_POINT ( 'NONE',  ( 14.28502261206536339, 106.4417115289639497, 28.57004522413073744 ) ) ;
#8 = CARTESIAN_POINT ( 'NONE',  ( 7.682404941383224717, 98.52911379696882932, -15.36480988276644588 ) ) ;
#9 = CARTESIAN_POINT ( 'NONE',  ( 12.08770666787077630, 108.9527019820046689, -24.17541333574154194 ) ) ;
#10 = CARTESIAN_POINT ( 'NONE',  ( 12.08770666787077452, 108.9527019820046689, 0.000000000000000000 ) ) ;
#11 = CARTESIAN_POINT ( 'NONE',  ( -5.821944985844387688, 100.9638734424734423, -7.129826291726311661E-16 ) ) ;
#12 = CARTESIAN_POINT ( 'NONE',  ( 33.19362663274323211, 53.84022639650298458, 0.000000000000000000 ) ) ;
#13 = CARTESIAN_POINT ( 'NONE',  ( -10.03648359438387061, 94.85355996640683429, -20.07296718876774122 ) ) ;
#14 = CARTESIAN_POINT ( 'NONE',  ( -14.28502261206536517, 106.4417115289639497, -28.57004522413073744 ) ) ;
#15 = CARTESIAN_POINT ( 'NONE',  ( 22.13140133133406451, 58.84893421858518536, -44.26280266266812191 ) ) ;
#16 = CARTESIAN_POINT ( 'NONE',  ( -37.49999960152841538, 2.088881362321191482, -4.592425448003880161E-15 ) ) ;
#17 = CARTESIAN_POINT ( 'NONE',  ( -1.568237283953980654, 104.5643176427860226, -1.920536770097781068E-16 ) ) ;
#18 = ORIENTED_EDGE ( 'NONE', *, *, #97, .F. ) ;
#19 = CARTESIAN_POINT ( 'NONE',  ( -37.50000000000000000, 0.000000000000000000, -4.592425496802574367E-15 ) ) ;
#20 = ADVANCED_FACE ( 'NONE', ( #525 ), #162, .F. ) ;
#21 = DIRECTION ( 'NONE',  ( -0.000000000000000000, 1.000000000000000000, -0.000000000000000000 ) ) ;
#22 = CARTESIAN_POINT ( 'NONE',  ( -2.417267870994372903, 114.7697713102047175, -2.960299360894996045E-16 ) ) ;
#23 = CARTESIAN_POINT ( 'NONE',  ( -1.126889523149363415, 104.7566420921074979, -1.380041647517555199E-16 ) ) ;
#24 = CARTESIAN_POINT ( 'NONE',  ( 34.47483639530958754, 45.61961002895164086, 68.94967279061920351 ) ) ;
#25 = CARTESIAN_POINT ( 'NONE',  ( -2.417267870994372014, 114.7697713102047175, -4.834535741988744029 ) ) ;
#26 = CARTESIAN_POINT ( 'NONE',  ( 27.26707534709303360, 15.50349594028027056, 54.53415069418608851 ) ) ;
#27 = CARTESIAN_POINT ( 'NONE',  ( -27.50000000000018119, -1.907583604965346069E-06, -3.367778697655243396E-15 ) ) ;
#28 = VERTEX_POINT ( 'NONE', #568 ) ;
#29 = CARTESIAN_POINT ( 'NONE',  ( 29.79724349199508282, 70.12809412042408042, 7.298219773177215921E-15 ) ) ;
#30 = CARTESIAN_POINT ( 'NONE',  ( -8.222052795606618503, 112.2576286265869072, -1.006911063856019191E-15 ) ) ;
#31 = CARTESIAN_POINT ( 'NONE',  ( 1.055936071880600791, 114.9639777448462468, 2.111872143761202469 ) ) ;
#32 = CARTESIAN_POINT ( 'NONE',  ( -15.43683597845520694, 82.97523569392093634, -1.890467176997786936E-15 ) ) ;
#33 = UNCERTAINTY_MEASURE_WITH_UNIT (LENGTH_MEASURE( 1.000000000000000082E-05 ), #444, 'distance_accuracy_value', 'NONE');
#34 = CARTESIAN_POINT ( 'NONE',  ( -24.37386908212507919, 46.27047426223852966, -2.984938075426111793E-15 ) ) ;
#35 = CARTESIAN_POINT ( 'NONE',  ( 0.02889587933406565987, 104.9999999999999858, 7.077449227002331887E-18 ) ) ;
#36 = CARTESIAN_POINT ( 'NONE',  ( -29.79724349199508282, 70.12809412042408042, -3.649109886588607961E-15 ) ) ;
#37 = CARTESIAN_POINT ( 'NONE',  ( -2.417267870994372903, 114.7697713102047175, -2.960299360894996045E-16 ) ) ;
#38 = CARTESIAN_POINT ( 'NONE',  ( 37.50000000000000000, 0.000000000000000000, 0.000000000000000000 ) ) ;
#39 = CARTESIAN_POINT ( 'NONE',  ( 0.2163907479956065916, 104.9905982072333472, 5.300044737958422646E-17 ) ) ;
#40 = CARTESIAN_POINT ( 'NONE',  ( -19.34899955152706141, 98.72170483354535975, -2.369569036748119061E-15 ) ) ;
#41 = CIRCLE ( 'NONE', #186, 27.50000000000018119 ) ;
#42 = CARTESIAN_POINT ( 'NONE',  ( -37.49999999999999289, 1.058791184067875424E-22, -74.99999999999998579 ) ) ;
#43 = CARTESIAN_POINT ( 'NONE',  ( -17.79499309743860280, 75.94458874243358082, -2.179258133762743236E-15 ) ) ;
#44 = CARTESIAN_POINT ( 'NONE',  ( -1.126889523149363859, 104.7566420921074979, 2.253779046298726385 ) ) ;
#45 = CARTESIAN_POINT ( 'NONE',  ( 33.19362663274321079, 53.84022639650297748, 66.38725326548645000 ) ) ;
#46 = CARTESIAN_POINT ( 'NONE',  ( 27.49999901458401652, 5.165780398619439495, 0.000000000000000000 ) ) ;
#47 = CARTESIAN_POINT ( 'NONE',  ( -15.43683597845521049, 82.97523569392093634, 30.87367195691039967 ) ) ;
#48 = CARTESIAN_POINT ( 'NONE',  ( -5.821944985844387688, 100.9638734424734423, -7.129826291726311661E-16 ) ) ;
#49 = CARTESIAN_POINT ( 'NONE',  ( 37.49999999999997158, 1.058791184067875424E-22, 74.99999999999998579 ) ) ;
#50 = CARTESIAN_POINT ( 'NONE',  ( 0.07435801584409069964, 104.9992606392339667, 0.1487160316881814826 ) ) ;
#51 = CARTESIAN_POINT ( 'NONE',  ( 0.2469314272306927516, 104.9873158898886487, -0.4938628544613854476 ) ) ;
#52 = CARTESIAN_POINT ( 'NONE',  ( -36.32542350508995810, 29.08639848986453558, 72.65084701017988777 ) ) ;
#53 = CARTESIAN_POINT ( 'NONE',  ( 22.20062742315682058, 92.97224974267305697, 44.40125484631366248 ) ) ;
#54 = CARTESIAN_POINT ( 'NONE',  ( 2.430432937913059366, 104.0914729575759310, 0.000000000000000000 ) ) ;
#55 = CARTESIAN_POINT ( 'NONE',  ( 8.222052795606618503, 112.2576286265869072, 2.013822127712038381E-15 ) ) ;
#56 = CARTESIAN_POINT ( 'NONE',  ( 10.03162159818834986, 110.8760462480236555, 0.000000000000000000 ) ) ;
#57 = CARTESIAN_POINT ( 'NONE',  ( -1.568237283953980210, 104.5643176427860226, -3.136474567907960420 ) ) ;
#58 = CARTESIAN_POINT ( 'NONE',  ( 0.1682816855854301630, 114.9999999999999858, 4.121712552146366484E-17 ) ) ;
#59 = CARTESIAN_POINT ( 'NONE',  ( 36.92428090845916699, 20.79764482368184986, 0.000000000000000000 ) ) ;
#60 = CARTESIAN_POINT ( 'NONE',  ( 17.79499309743860636, 75.94458874243358082, -35.58998619487719850 ) ) ;
#61 = CARTESIAN_POINT ( 'NONE',  ( 14.28502261206537050, 106.4417115289639497, -28.57004522413073033 ) ) ;
#62 = CARTESIAN_POINT ( 'NONE',  ( 37.49999960152841538, 2.088881362321191482, 9.184850896007760322E-15 ) ) ;
#63 = CIRCLE ( 'NONE', #439, 37.50000000000000000 ) ;
#64 = CARTESIAN_POINT ( 'NONE',  ( -0.2469314272306927238, 104.9873158898886487, -0.4938628544613854476 ) ) ;
#65 = CARTESIAN_POINT ( 'NONE',  ( -29.79724349199508282, 70.12809412042408042, -3.649109886588607961E-15 ) ) ;
#66 = CARTESIAN_POINT ( 'NONE',  ( 15.43683597845520694, 82.97523569392093634, 0.000000000000000000 ) ) ;
#67 = CARTESIAN_POINT ( 'NONE',  ( -37.46714336315369565, 6.249374420304289579, -74.93428672630739129 ) ) ;
#68 = MANIFOLD_SOLID_BREP ( 'Revolve2', #592 ) ;
#69 = CARTESIAN_POINT ( 'NONE',  ( 10.03648359438387239, 94.85355996640683429, 0.000000000000000000 ) ) ;
#70 = CARTESIAN_POINT ( 'NONE',  ( -35.51298973387820723, 37.36510694205551886, -71.02597946775641446 ) ) ;
#71 = CARTESIAN_POINT ( 'NONE',  ( -27.50000000000018119, -1.907583608838430902E-06, -3.367778697655243396E-15 ) ) ;
#72 = MECHANICAL_DESIGN_GEOMETRIC_PRESENTATION_REPRESENTATION (  '', ( #484 ), #140 ) ;
#73 = CARTESIAN_POINT ( 'NONE',  ( -3.086468832222482028, 114.6170262203957435, -6.172937664444964057 ) ) ;
#74 = CARTESIAN_POINT ( 'NONE',  ( 0.000000000000000000, 0.000000000000000000, 0.000000000000000000 ) ) ;
#75 = CARTESIAN_POINT ( 'NONE',  ( -0.5026003116208380694, 114.9934503533469297, -6.155078628769215933E-17 ) ) ;
#76 = CARTESIAN_POINT ( 'NONE',  ( -22.13140133133406451, 58.84893421858518536, -2.710314980106373502E-15 ) ) ;
#77 = VERTEX_POINT ( 'NONE', #355 ) ;
#78 = CARTESIAN_POINT ( 'NONE',  ( 31.64539161236489662, 62.01512121903378016, 7.750885509169433627E-15 ) ) ;
#79 = CARTESIAN_POINT ( 'NONE',  ( -12.08770666787077097, 108.9527019820046689, -24.17541333574154194 ) ) ;
#80 = CARTESIAN_POINT ( 'NONE',  ( -12.69360389172227599, 89.68673381387900179, 25.38720778344454132 ) ) ;
#81 = CARTESIAN_POINT ( 'NONE',  ( -27.26707534709304426, 15.50349594028026878, -3.339253654592719900E-15 ) ) ;
#82 = CARTESIAN_POINT ( 'NONE',  ( -3.086468832222482916, 114.6170262203957435, -3.779834176049332981E-16 ) ) ;
#83 = CIRCLE ( 'NONE', #129, 27.50000000000018119 ) ;
#84 = CARTESIAN_POINT ( 'NONE',  ( -12.08770666787077452, 108.9527019820046689, -1.480317127984006285E-15 ) ) ;
#85 = CARTESIAN_POINT ( 'NONE',  ( -0.4961823954221952215, 104.9477921819924688, 0.9923647908443901100 ) ) ;
#86 = CARTESIAN_POINT ( 'NONE',  ( 1.055936071880601235, 114.9639777448462468, -2.111872143761202025 ) ) ;
#87 = CARTESIAN_POINT ( 'NONE',  ( 8.222052795606614950, 112.2576286265869072, 16.44410559121323701 ) ) ;
#88 =( NAMED_UNIT ( * ) SI_UNIT ( $, .STERADIAN. ) SOLID_ANGLE_UNIT ( ) );
#89 = PRODUCT_DEFINITION_CONTEXT ( 'detailed design', #248, 'design' ) ;
#90 = CARTESIAN_POINT ( 'NONE',  ( -0.2163907479956065916, 104.9905982072333472, -2.650022368979211323E-17 ) ) ;
#91 = CARTESIAN_POINT ( 'NONE',  ( 15.43683597845520694, 82.97523569392093634, 0.000000000000000000 ) ) ;
#92 = CARTESIAN_POINT ( 'NONE',  ( 3.988835411096326666, 114.3641668309545594, 9.769829037049467942E-16 ) ) ;
#93 = CARTESIAN_POINT ( 'NONE',  ( -27.49999901458401652, 5.165780398619439495, 54.99999802916801173 ) ) ;
#94 = CARTESIAN_POINT ( 'NONE',  ( 0.3910879220260796152, 104.9672912320454117, 0.7821758440521595634 ) ) ;
#95 = CARTESIAN_POINT ( 'NONE',  ( -33.19362663274323211, 53.84022639650297748, 66.38725326548645000 ) ) ;
#96 = CARTESIAN_POINT ( 'NONE',  ( 0.3910879220260798372, 104.9672912320454259, 0.000000000000000000 ) ) ;
#97 = EDGE_CURVE ( 'NONE', #347, #555, #674, .T. ) ;
#98 = CARTESIAN_POINT ( 'NONE',  ( -26.20321689103891316, 30.94917458379493524, -3.208968569297466529E-15 ) ) ;
#99 = APPLICATION_PROTOCOL_DEFINITION ( 'draft international standard', 'automotive_design', 1998, #259 ) ;
#100 = CARTESIAN_POINT ( 'NONE',  ( 0.4961823954221948885, 104.9477921819924688, 0.9923647908443903320 ) ) ;
#101 = CARTESIAN_POINT ( 'NONE',  ( -0.02889587933406565987, 104.9999999999999858, -3.538724613501165943E-18 ) ) ;
#102 = CARTESIAN_POINT ( 'NONE',  ( 8.222052795606618503, 112.2576286265869072, 0.000000000000000000 ) ) ;
#103 = ORIENTED_EDGE ( 'NONE', *, *, #461, .T. ) ;
#104 = CARTESIAN_POINT ( 'NONE',  ( -1.055936071880601235, 114.9639777448462326, -1.293148730532807947E-16 ) ) ;
#105 = CARTESIAN_POINT ( 'NONE',  ( 36.92428090845916699, 20.79764482368184986, 9.043840485072449537E-15 ) ) ;
#106 = CARTESIAN_POINT ( 'NONE',  ( -22.20062742315683479, 92.97224974267305697, -2.718792731283196696E-15 ) ) ;
#107 = CARTESIAN_POINT ( 'NONE',  ( -10.03648359438387239, 94.85355996640683429, -1.229114750855713219E-15 ) ) ;
#108 = CARTESIAN_POINT ( 'NONE',  ( 0.000000000000000000, 115.0000000000000000, 0.000000000000000000 ) ) ;
#109 = CARTESIAN_POINT ( 'NONE',  ( 5.115383434812566854, 113.9551157002085091, 10.23076686962513904 ) ) ;
#110 = CARTESIAN_POINT ( 'NONE',  ( 37.31972729657158538, 12.48744494423360152, 74.63945459314321340 ) ) ;
#111 = CARTESIAN_POINT ( 'NONE',  ( -0.8603087164077419802, 104.8536745828165380, -1.720617432815483960 ) ) ;
#112 = CARTESIAN_POINT ( 'NONE',  ( -12.08770666787077985, 108.9527019820046689, 24.17541333574154194 ) ) ;
#113 = CARTESIAN_POINT ( 'NONE',  ( 19.34899955152706141, 98.72170483354535975, 0.000000000000000000 ) ) ;
#114 = CARTESIAN_POINT ( 'NONE',  ( -7.682404941383222940, 98.52911379696882932, -15.36480988276644588 ) ) ;
#115 = CARTESIAN_POINT ( 'NONE',  ( -37.46714336315370275, 6.249374420304287803, -4.588401719288117579E-15 ) ) ;
#116 = FACE_OUTER_BOUND ( 'NONE', #508, .T. ) ;
#117 = CARTESIAN_POINT ( 'NONE',  ( 0.3910879220260798927, 104.9672912320454117, -0.7821758440521594524 ) ) ;
#118 = CARTESIAN_POINT ( 'NONE',  ( -34.47483639530959465, 45.61961002895164086, -68.94967279061918930 ) ) ;
#119 = CARTESIAN_POINT ( 'NONE',  ( 10.03648359438387239, 94.85355996640683429, -20.07296718876774122 ) ) ;
#120 = CARTESIAN_POINT ( 'NONE',  ( -35.51298973387820723, 37.36510694205551886, -4.349086920574676094E-15 ) ) ;
#121 = CARTESIAN_POINT ( 'NONE',  ( 12.69360389172227244, 89.68673381387900179, 0.000000000000000000 ) ) ;
#122 = CARTESIAN_POINT ( 'NONE',  ( -24.99563642055401047, 86.05949782867999431, -49.99127284110802094 ) ) ;
#123 = CARTESIAN_POINT ( 'NONE',  ( 27.49999901458401652, 5.165780398619439495, 0.000000000000000000 ) ) ;
#124 = ORIENTED_EDGE ( 'NONE', *, *, #638, .F. ) ;
#125 = CARTESIAN_POINT ( 'NONE',  ( -16.59214072325443823, 103.2641834162360936, 33.18428144650886935 ) ) ;
#126 = CARTESIAN_POINT ( 'NONE',  ( 33.19362663274322500, 53.84022639650297748, -66.38725326548645000 ) ) ;
#127 = CARTESIAN_POINT ( 'NONE',  ( -26.20321689103890961, 30.94917458379493524, -52.40643378207781922 ) ) ;
#128 = ORIENTED_EDGE ( 'NONE', *, *, #388, .T. ) ;
#129 = AXIS2_PLACEMENT_3D ( 'NONE', #421, #212, #309 ) ;
#130 = CARTESIAN_POINT ( 'NONE',  ( 5.115383434812569519, 113.9551157002084949, 0.000000000000000000 ) ) ;
#131 = CARTESIAN_POINT ( 'NONE',  ( 26.20321689103891316, 30.94917458379493524, -52.40643378207781922 ) ) ;
#132 = CARTESIAN_POINT ( 'NONE',  ( -8.329475628745927657E-13, 114.9999999999999716, -1.020066566731958679E-28 ) ) ;
#133 = CARTESIAN_POINT ( 'NONE',  ( -27.49999901458401652, 5.165780398619439495, -3.367778576976568237E-15 ) ) ;
#134 = CARTESIAN_POINT ( 'NONE',  ( 3.988835411096327110, 114.3641668309545594, -7.977670822192651556 ) ) ;
#135 = CARTESIAN_POINT ( 'NONE',  ( 1.718983956971748883, 114.8858423590293967, 3.437967913943499099 ) ) ;
#136 = CARTESIAN_POINT ( 'NONE',  ( -27.26707534709304781, 15.50349594028027056, 54.53415069418607430 ) ) ;
#137 = CARTESIAN_POINT ( 'NONE',  ( -2.430432937913059810, 104.0914729575759310, 4.860865875826117843 ) ) ;
#138 = CARTESIAN_POINT ( 'NONE',  ( -34.47483639530960886, 45.61961002895164086, 68.94967279061918930 ) ) ;
#139 = CARTESIAN_POINT ( 'NONE',  ( 1.055936071880601235, 114.9639777448462326, 0.000000000000000000 ) ) ;
#140 =( GEOMETRIC_REPRESENTATION_CONTEXT ( 3 ) GLOBAL_UNCERTAINTY_ASSIGNED_CONTEXT ( ( #33 ) ) GLOBAL_UNIT_ASSIGNED_CONTEXT ( ( #444, #350, #88 ) ) REPRESENTATION_CONTEXT ( 'NONE', 'WORKASPACE' ) );
#141 = PRODUCT_DEFINITION_FORMATION_WITH_SPECIFIED_SOURCE ( 'ANY', '', #483, .NOT_KNOWN. ) ;
#142 = CARTESIAN_POINT ( 'NONE',  ( 0.5026003116208377364, 114.9934503533469297, 1.005200623241675917 ) ) ;
#143 = SURFACE_STYLE_FILL_AREA ( #247 ) ;
#144 = CARTESIAN_POINT ( 'NONE',  ( 0.000000000000000000, 0.000000000000000000, 0.000000000000000000 ) ) ;
#145 = CARTESIAN_POINT ( 'NONE',  ( 1.568237283953980654, 104.5643176427860226, 3.841073540195562137E-16 ) ) ;
#146 = CARTESIAN_POINT ( 'NONE',  ( 36.32542350508995099, 29.08639848986453558, 8.897162724636088112E-15 ) ) ;
#147 = CARTESIAN_POINT ( 'NONE',  ( 10.03162159818834986, 110.8760462480236555, -20.06324319637669618 ) ) ;
#148 = CARTESIAN_POINT ( 'NONE',  ( 27.49999901458399520, 5.165780398619439495, 54.99999802916801173 ) ) ;
#149 = CARTESIAN_POINT ( 'NONE',  ( 0.2163907479956064805, 104.9905982072333614, 0.4327814959912131276 ) ) ;
#150 = CARTESIAN_POINT ( 'NONE',  ( 0.2469314272306927516, 104.9873158898886629, 0.000000000000000000 ) ) ;
#151 = EDGE_CURVE ( 'NONE', #602, #28, #83, .T. ) ;
#152 = CARTESIAN_POINT ( 'NONE',  ( 26.20321689103889895, 30.94917458379493524, 52.40643378207781922 ) ) ;
#153 = CARTESIAN_POINT ( 'NONE',  ( -0.07435801584409075515, 104.9992606392339809, -9.106230609441391126E-18 ) ) ;
#154 = CARTESIAN_POINT ( 'NONE',  ( -16.59214072325443823, 103.2641834162361079, -2.031951202773599834E-15 ) ) ;
#155 = CARTESIAN_POINT ( 'NONE',  ( -37.50000000000000000, 1.058791184067875424E-22, -4.592425496802574367E-15 ) ) ;
#156 = CARTESIAN_POINT ( 'NONE',  ( 27.60284636521527091, 78.15511361868111351, 55.20569273043056313 ) ) ;
#157 = CARTESIAN_POINT ( 'NONE',  ( 0.2469314272306927516, 104.9873158898886629, 6.048075639339108459E-17 ) ) ;
#158 = CARTESIAN_POINT ( 'NONE',  ( -0.2163907479956065916, 104.9905982072333472, -2.650022368979211323E-17 ) ) ;
#159 = CARTESIAN_POINT ( 'NONE',  ( -36.92428090845917410, 20.79764482368184986, 73.84856181691831978 ) ) ;
#160 = CARTESIAN_POINT ( 'NONE',  ( 10.03648359438386706, 94.85355996640683429, 20.07296718876774477 ) ) ;
#161 = CARTESIAN_POINT ( 'NONE',  ( 24.37386908212507919, 46.27047426223852966, 0.000000000000000000 ) ) ;
#162 =( BOUNDED_SURFACE ( )  B_SPLINE_SURFACE ( 3, 3, ( 
 ( #566, #682, #456, #254 ),
 ( #300, #297, #406, #35 ),
 ( #153, #213, #50, #512 ),
 ( #90, #560, #149, #39 ),
 ( #310, #359, #304, #157 ),
 ( #675, #262, #94, #206 ),
 ( #198, #85, #100, #670 ),
 ( #678, #622, #203, #625 ),
 ( #619, #243, #470, #466 ),
 ( #307, #44, #415, #364 ),
 ( #451, #665, #402, #145 ),
 ( #522, #137, #209, #356 ),
 ( #518, #615, #569, #352 ),
 ( #48, #563, #462, #257 ),
 ( #411, #573, #628, #575 ),
 ( #107, #314, #160, #368 ),
 ( #449, #80, #401, #252 ),
 ( #32, #47, #408, #608 ),
 ( #43, #296, #241, #405 ),
 ( #343, #460, #673, #558 ),
 ( #618, #205, #621, #553 ),
 ( #290, #256, #663, #506 ),
 ( #98, #511, #152, #614 ),
 ( #358, #136, #26, #196 ),
 ( #669, #93, #148, #677 ),
 ( #464, #397, #306, #659 ) ),
 .UNSPECIFIED., .F., .F., .T. ) 
 B_SPLINE_SURFACE_WITH_KNOTS ( ( 4, 1, 1, 1, 1, 1, 1, 1, 1, 1, 1, 1, 1, 1, 1, 1, 1, 1, 1, 1, 1, 1, 1, 4 ),
 ( 4, 4 ),
 ( 0.02897191548834833832, 0.03276499394347198030, 0.03655807239859561880, 0.04035115085371925731, 0.04414422930884289581, 0.04793730776396653431, 0.05173038621909017282, 0.05931654312933744982, 0.06690270003958473377, 0.07448885694983201078, 0.08966117077032656479, 0.1200057984113156728, 0.1503504260523047809, 0.1806950536932939166, 0.2110396813342830247, 0.2717289366162612407, 0.3324181918982395123, 0.3931074471802177284, 0.4537967024621959444, 0.5144859577441741605, 0.6358644683081307036, 0.7572429788720871358, 0.8786214894360435679, 1.000000000000000000 ),
 ( 0.000000000000000000, 1.000000000000000000 ),
 .UNSPECIFIED. ) 
 GEOMETRIC_REPRESENTATION_ITEM ( )  RATIONAL_B_SPLINE_SURFACE ( (
 ( 1.000000000000000000, 0.3333333333333334259, 0.3333333333333334259, 1.000000000000000000),
 ( 1.000000000000000000, 0.3333333333333334259, 0.3333333333333334259, 1.000000000000000000),
 ( 1.000000000000000000, 0.3333333333333334259, 0.3333333333333334259, 1.000000000000000000),
 ( 1.000000000000000000, 0.3333333333333334259, 0.3333333333333334259, 1.000000000000000000),
 ( 1.000000000000000000, 0.3333333333333334259, 0.3333333333333334259, 1.000000000000000000),
 ( 1.000000000000000000, 0.3333333333333334259, 0.3333333333333334259, 1.000000000000000000),
 ( 1.000000000000000000, 0.3333333333333334259, 0.3333333333333334259, 1.000000000000000000),
 ( 1.000000000000000000, 0.3333333333333334259, 0.3333333333333334259, 1.000000000000000000),
 ( 1.000000000000000000, 0.3333333333333334259, 0.3333333333333334259, 1.000000000000000000),
 ( 1.000000000000000000, 0.3333333333333334259, 0.3333333333333334259, 1.000000000000000000),
 ( 1.000000000000000000, 0.3333333333333334259, 0.3333333333333334259, 1.000000000000000000),
 ( 1.000000000000000000, 0.3333333333333334259, 0.3333333333333334259, 1.000000000000000000),
 ( 1.000000000000000000, 0.3333333333333334259, 0.3333333333333334259, 1.000000000000000000),
 ( 1.000000000000000000, 0.3333333333333334259, 0.3333333333333334259, 1.000000000000000000),
 ( 1.000000000000000000, 0.3333333333333334259, 0.3333333333333334259, 1.000000000000000000),
 ( 1.000000000000000000, 0.3333333333333334259, 0.3333333333333334259, 1.000000000000000000),
 ( 1.000000000000000000, 0.3333333333333334259, 0.3333333333333334259, 1.000000000000000000),
 ( 1.000000000000000000, 0.3333333333333334259, 0.3333333333333334259, 1.000000000000000000),
 ( 1.000000000000000000, 0.3333333333333334259, 0.3333333333333334259, 1.000000000000000000),
 ( 1.000000000000000000, 0.3333333333333334259, 0.3333333333333334259, 1.000000000000000000),
 ( 1.000000000000000000, 0.3333333333333334259, 0.3333333333333334259, 1.000000000000000000),
 ( 1.000000000000000000, 0.3333333333333334259, 0.3333333333333334259, 1.000000000000000000),
 ( 1.000000000000000000, 0.3333333333333334259, 0.3333333333333334259, 1.000000000000000000),
 ( 1.000000000000000000, 0.3333333333333334259, 0.3333333333333334259, 1.000000000000000000),
 ( 1.000000000000000000, 0.3333333333333334259, 0.3333333333333334259, 1.000000000000000000),
 ( 1.000000000000000000, 0.3333333333333334259, 0.3333333333333334259, 1.000000000000000000) ) ) 
 REPRESENTATION_ITEM ( '' )  SURFACE ( )  );
#163 = CARTESIAN_POINT ( 'NONE',  ( 6.518137678910544963, 113.2961024464049729, 1.596483288975911481E-15 ) ) ;
#164 = CARTESIAN_POINT ( 'NONE',  ( -37.49999960152842249, 2.088881362321191482, 74.99999920305681655 ) ) ;
#165 = CARTESIAN_POINT ( 'NONE',  ( 5.821944985844387688, 100.9638734424734423, 0.000000000000000000 ) ) ;
#166 = CARTESIAN_POINT ( 'NONE',  ( -3.988835411096327999, 114.3641668309545594, 7.977670822192651556 ) ) ;
#167 = CARTESIAN_POINT ( 'NONE',  ( 36.92428090845914568, 20.79764482368184986, 73.84856181691833399 ) ) ;
#168 = CARTESIAN_POINT ( 'NONE',  ( -3.926730661790370558, 102.9498440671084438, -4.808858136075344567E-16 ) ) ;
#169 = CARTESIAN_POINT ( 'NONE',  ( -29.79724349199507927, 70.12809412042406620, -59.59448698399016564 ) ) ;
#170 = CARTESIAN_POINT ( 'NONE',  ( 16.59214072325443823, 103.2641834162361079, 0.000000000000000000 ) ) ;
#171 = CARTESIAN_POINT ( 'NONE',  ( -1.568237283953980654, 104.5643176427860226, -1.920536770097781068E-16 ) ) ;
#172 = CARTESIAN_POINT ( 'NONE',  ( -36.32542350508995099, 29.08639848986453558, -4.448581362318044056E-15 ) ) ;
#173 = CARTESIAN_POINT ( 'NONE',  ( -3.926730661790370114, 102.9498440671084438, -7.853461323580740228 ) ) ;
#174 = CARTESIAN_POINT ( 'NONE',  ( -27.60284636521527446, 78.15511361868111351, -55.20569273043054892 ) ) ;
#175 = CARTESIAN_POINT ( 'NONE',  ( 5.821944985844387688, 100.9638734424734423, 0.000000000000000000 ) ) ;
#176 = CARTESIAN_POINT ( 'NONE',  ( 27.60284636521528512, 78.15511361868111351, 0.000000000000000000 ) ) ;
#177 = CARTESIAN_POINT ( 'NONE',  ( 24.37386908212507919, 46.27047426223852256, -48.74773816425014417 ) ) ;
#178 = CARTESIAN_POINT ( 'NONE',  ( -36.92428090845916699, 20.79764482368184986, -4.521920242536224768E-15 ) ) ;
#179 = CARTESIAN_POINT ( 'NONE',  ( 27.26707534709304426, 15.50349594028027056, -54.53415069418607430 ) ) ;
#180 = EDGE_LOOP ( 'NONE', ( #337, #231, #292 ) ) ;
#181 = CARTESIAN_POINT ( 'NONE',  ( 19.34899955152705076, 98.72170483354537396, 38.69799910305412283 ) ) ;
#182 = CARTESIAN_POINT ( 'NONE',  ( -36.32542350508995099, 29.08639848986453558, -4.448581362318044056E-15 ) ) ;
#183 =( BOUNDED_SURFACE ( )  B_SPLINE_SURFACE ( 4, 3, ( 
 ( #155, #325, #49, #524 ),
 ( #478, #164, #537, #62 ),
 ( #275, #371, #578, #486 ),
 ( #260, #410, #110, #374 ),
 ( #413, #159, #167, #105 ),
 ( #527, #52, #318, #146 ),
 ( #199, #441, #513, #457 ),
 ( #244, #138, #24, #452 ),
 ( #394, #95, #45, #187 ),
 ( #341, #551, #344, #78 ),
 ( #611, #293, #503, #29 ),
 ( #446, #660, #156, #363 ),
 ( #572, #414, #261, #367 ),
 ( #106, #313, #53, #474 ),
 ( #685, #322, #181, #477 ),
 ( #432, #125, #583, #533 ),
 ( #640, #546, #7, #644 ),
 ( #84, #112, #476, #317 ),
 ( #373, #202, #302, #562 ),
 ( #396, #417, #87, #55 ),
 ( #658, #349, #630, #163 ),
 ( #191, #420, #109, #529 ),
 ( #354, #166, #662, #92 ),
 ( #582, #370, #320, #532 ),
 ( #37, #267, #577, #607 ),
 ( #454, #299, #135, #246 ),
 ( #505, #510, #31, #295 ),
 ( #218, #2, #142, #668 ),
 ( #240, #346, #635, #58 ),
 ( #404, #251, #443, #557 ) ),
 .UNSPECIFIED., .F., .F., .F. ) 
 B_SPLINE_SURFACE_WITH_KNOTS ( ( 5, 1, 1, 1, 1, 1, 1, 1, 1, 1, 1, 1, 1, 1, 1, 1, 1, 1, 1, 1, 1, 1, 1, 1, 1, 1, 5 ),
 ( 4, 4 ),
 ( 0.02897191548834833832, 0.09253687214963325636, 0.1555762641788661915, 0.2188325557915164199, 0.2821139137707467937, 0.3453958934531369263, 0.4086791227194849219, 0.4719636347962525846, 0.5352478009079650878, 0.5985319740762785612, 0.6618162072205436841, 0.7251005433879316175, 0.7883848561907105257, 0.8252285492735238481, 0.8568703340812231506, 0.8866340287501349726, 0.9077287339825451662, 0.9265966986897151703, 0.9424178928030055857, 0.9557795706333223063, 0.9683581900068053416, 0.9736317339854542174, 0.9789052779641032043, 0.9841790170100689350, 0.9894527560560347768, 0.9947263780280173329, 1.000000000000000000 ),
 ( 0.000000000000000000, 1.000000000000000000 ),
 .UNSPECIFIED. ) 
 GEOMETRIC_REPRESENTATION_ITEM ( )  RATIONAL_B_SPLINE_SURFACE ( (
 ( 1.000000000000000000, 0.3333333333333334259, 0.3333333333333334259, 1.000000000000000000),
 ( 1.000000000000000000, 0.3333333333333334259, 0.3333333333333334259, 1.000000000000000000),
 ( 1.000000000000000000, 0.3333333333333334259, 0.3333333333333334259, 1.000000000000000000),
 ( 1.000000000000000000, 0.3333333333333334259, 0.3333333333333334259, 1.000000000000000000),
 ( 1.000000000000000000, 0.3333333333333334259, 0.3333333333333334259, 1.000000000000000000),
 ( 1.000000000000000000, 0.3333333333333334259, 0.3333333333333334259, 1.000000000000000000),
 ( 1.000000000000000000, 0.3333333333333334259, 0.3333333333333334259, 1.000000000000000000),
 ( 1.000000000000000000, 0.3333333333333334259, 0.3333333333333334259, 1.000000000000000000),
 ( 1.000000000000000000, 0.3333333333333334259, 0.3333333333333334259, 1.000000000000000000),
 ( 1.000000000000000000, 0.3333333333333334259, 0.3333333333333334259, 1.000000000000000000),
 ( 1.000000000000000000, 0.3333333333333334259, 0.3333333333333334259, 1.000000000000000000),
 ( 1.000000000000000000, 0.3333333333333334259, 0.3333333333333334259, 1.000000000000000000),
 ( 1.000000000000000000, 0.3333333333333334259, 0.3333333333333334259, 1.000000000000000000),
 ( 1.000000000000000000, 0.3333333333333334259, 0.3333333333333334259, 1.000000000000000000),
 ( 1.000000000000000000, 0.3333333333333334259, 0.3333333333333334259, 1.000000000000000000),
 ( 1.000000000000000000, 0.3333333333333334259, 0.3333333333333334259, 1.000000000000000000),
 ( 1.000000000000000000, 0.3333333333333334259, 0.3333333333333334259, 1.000000000000000000),
 ( 1.000000000000000000, 0.3333333333333334259, 0.3333333333333334259, 1.000000000000000000),
 ( 1.000000000000000000, 0.3333333333333334259, 0.3333333333333334259, 1.000000000000000000),
 ( 1.000000000000000000, 0.3333333333333334259, 0.3333333333333334259, 1.000000000000000000),
 ( 1.000000000000000000, 0.3333333333333334259, 0.3333333333333334259, 1.000000000000000000),
 ( 1.000000000000000000, 0.3333333333333334259, 0.3333333333333334259, 1.000000000000000000),
 ( 1.000000000000000000, 0.3333333333333334259, 0.3333333333333334259, 1.000000000000000000),
 ( 1.000000000000000000, 0.3333333333333334259, 0.3333333333333334259, 1.000000000000000000),
 ( 1.000000000000000000, 0.3333333333333334259, 0.3333333333333334259, 1.000000000000000000),
 ( 1.000000000000000000, 0.3333333333333334259, 0.3333333333333334259, 1.000000000000000000),
 ( 1.000000000000000000, 0.3333333333333334259, 0.3333333333333334259, 1.000000000000000000),
 ( 1.000000000000000000, 0.3333333333333334259, 0.3333333333333334259, 1.000000000000000000),
 ( 1.000000000000000000, 0.3333333333333334259, 0.3333333333333334259, 1.000000000000000000),
 ( 1.000000000000000000, 0.3333333333333334259, 0.3333333333333334259, 1.000000000000000000) ) ) 
 REPRESENTATION_ITEM ( '' )  SURFACE ( )  );
#184 =( LENGTH_UNIT ( ) NAMED_UNIT ( * ) SI_UNIT ( .MILLI., .METRE. ) );
#185 = ORIENTED_EDGE ( 'NONE', *, *, #633, .T. ) ;
#186 = AXIS2_PLACEMENT_3D ( 'NONE', #588, #469, #3 ) ;
#187 = CARTESIAN_POINT ( 'NONE',  ( 33.19362663274323211, 53.84022639650298458, 8.130093721576266817E-15 ) ) ;
#188 = CARTESIAN_POINT ( 'NONE',  ( -0.5026003116208379584, 114.9934503533469297, -1.005200623241675917 ) ) ;
#189 = CARTESIAN_POINT ( 'NONE',  ( -24.37386908212507208, 46.27047426223852256, -48.74773816425014417 ) ) ;
#190 = CARTESIAN_POINT ( 'NONE',  ( 8.222052795606618503, 112.2576286265869072, -16.44410559121323701 ) ) ;
#191 = CARTESIAN_POINT ( 'NONE',  ( -5.115383434812569519, 113.9551157002084949, -6.264537949854606627E-16 ) ) ;
#192 = SURFACE_STYLE_USAGE ( .BOTH. , #520 ) ;
#193 = CARTESIAN_POINT ( 'NONE',  ( -24.37386908212507919, 46.27047426223852966, -2.984938075426111793E-15 ) ) ;
#194 = CARTESIAN_POINT ( 'NONE',  ( -33.19362663274323211, 53.84022639650298458, -4.065046860788133408E-15 ) ) ;
#195 = CARTESIAN_POINT ( 'NONE',  ( 0.000000000000000000, 0.000000000000000000, 0.000000000000000000 ) ) ;
#196 = CARTESIAN_POINT ( 'NONE',  ( 27.26707534709304426, 15.50349594028026878, 6.678507309185439800E-15 ) ) ;
#197 = UNCERTAINTY_MEASURE_WITH_UNIT (LENGTH_MEASURE( 1.000000000000000082E-05 ), #184, 'distance_accuracy_value', 'NONE');
#198 = CARTESIAN_POINT ( 'NONE',  ( -0.4961823954221951660, 104.9477921819924688, -6.076481823470577236E-17 ) ) ;
#199 = CARTESIAN_POINT ( 'NONE',  ( -35.51298973387820723, 37.36510694205551886, -4.349086920574676094E-15 ) ) ;
#200 = CARTESIAN_POINT ( 'NONE',  ( 2.417267870994372903, 114.7697713102047175, 0.000000000000000000 ) ) ;
#201 = B_SPLINE_CURVE_WITH_KNOTS ( 'NONE', 4,
 ( #19, #294, #657, #453, #504, #182, #234, #389, #194, #353, #36, #245, #403, #498, #40, #154, #250, #564, #574, #419, #475, #217, #263, #365, #214, #683, #104, #567, #634, #108 ),
 .UNSPECIFIED., .F., .F.,
 ( 5, 1, 1, 1, 1, 1, 1, 1, 1, 1, 1, 1, 1, 1, 1, 1, 1, 1, 1, 1, 1, 1, 1, 1, 1, 1, 5 ),
 ( 0.02897191548834833832, 0.09253687214963325636, 0.1555762641788661915, 0.2188325557915164199, 0.2821139137707467937, 0.3453958934531369263, 0.4086791227194849219, 0.4719636347962525846, 0.5352478009079650878, 0.5985319740762785612, 0.6618162072205436841, 0.7251005433879316175, 0.7883848561907105257, 0.8252285492735238481, 0.8568703340812231506, 0.8866340287501349726, 0.9077287339825451662, 0.9265966986897151703, 0.9424178928030055857, 0.9557795706333223063, 0.9683581900068053416, 0.9736317339854542174, 0.9789052779641032043, 0.9841790170100689350, 0.9894527560560347768, 0.9947263780280173329, 1.000000000000000000 ),
 .UNSPECIFIED. ) ;
#202 = CARTESIAN_POINT ( 'NONE',  ( -10.03162159818835164, 110.8760462480236555, 20.06324319637669618 ) ) ;
#203 = CARTESIAN_POINT ( 'NONE',  ( 0.6166829568150694607, 104.9210193540301077, 1.233365913630139588 ) ) ;
#204 = CARTESIAN_POINT ( 'NONE',  ( 12.69360389172227244, 89.68673381387900179, 0.000000000000000000 ) ) ;
#205 = CARTESIAN_POINT ( 'NONE',  ( -22.13140133133407161, 58.84893421858518536, 44.26280266266812191 ) ) ;
#206 = CARTESIAN_POINT ( 'NONE',  ( 0.3910879220260798372, 104.9672912320454259, 9.578891437888565540E-17 ) ) ;
#207 = CARTESIAN_POINT ( 'NONE',  ( 0.02889587933406565987, 104.9999999999999858, 0.000000000000000000 ) ) ;
#208 = FILL_AREA_STYLE_COLOUR ( '', #681 ) ;
#209 = CARTESIAN_POINT ( 'NONE',  ( 2.430432937913058034, 104.0914729575759310, 4.860865875826118732 ) ) ;
#210 = CARTESIAN_POINT ( 'NONE',  ( 19.82023728434451826, 68.70224662669808424, 0.000000000000000000 ) ) ;
#211 = PRODUCT_DEFINITION_SHAPE ( 'NONE', 'NONE',  #581 ) ;
#212 = DIRECTION ( 'NONE',  ( -0.000000000000000000, 1.000000000000000000, -0.000000000000000000 ) ) ;
#213 = CARTESIAN_POINT ( 'NONE',  ( -0.07435801584409076903, 104.9992606392339667, 0.1487160316881814826 ) ) ;
#214 = CARTESIAN_POINT ( 'NONE',  ( -2.417267870994372903, 114.7697713102047175, -2.960299360894996045E-16 ) ) ;
#215 = CARTESIAN_POINT ( 'NONE',  ( 37.49999960152842249, 2.088881362321191482, -74.99999920305681655 ) ) ;
#216 = DIRECTION ( 'NONE',  ( -0.000000000000000000, 1.000000000000000000, 0.000000000000000000 ) ) ;
#217 = CARTESIAN_POINT ( 'NONE',  ( -5.115383434812569519, 113.9551157002084949, -6.264537949854606627E-16 ) ) ;
#218 = CARTESIAN_POINT ( 'NONE',  ( -0.5026003116208380694, 114.9934503533469297, -6.155078628769215933E-17 ) ) ;
#219 = CARTESIAN_POINT ( 'NONE',  ( 37.31972729657160670, 12.48744494423360152, 0.000000000000000000 ) ) ;
#220 = CARTESIAN_POINT ( 'NONE',  ( -12.69360389172227066, 89.68673381387900179, -25.38720778344454132 ) ) ;
#221 = CARTESIAN_POINT ( 'NONE',  ( -36.92428090845915989, 20.79764482368184986, -73.84856181691831978 ) ) ;
#222 = CARTESIAN_POINT ( 'NONE',  ( 22.20062742315683479, 92.97224974267305697, 0.000000000000000000 ) ) ;
#223 = CARTESIAN_POINT ( 'NONE',  ( 19.82023728434451826, 68.70224662669808424, 0.000000000000000000 ) ) ;
#224 = EDGE_CURVE ( 'NONE', #28, #602, #41, .T. ) ;
#225 = CARTESIAN_POINT ( 'NONE',  ( -37.31972729657159960, 12.48744494423360152, -74.63945459314319919 ) ) ;
#226 = CARTESIAN_POINT ( 'NONE',  ( -2.430432937913059366, 104.0914729575759310, -2.976421917957526019E-16 ) ) ;
#227 = CARTESIAN_POINT ( 'NONE',  ( 31.64539161236489662, 62.01512121903379438, -63.29078322472978613 ) ) ;
#228 = CARTESIAN_POINT ( 'NONE',  ( 15.43683597845520517, 82.97523569392093634, -30.87367195691040678 ) ) ;
#229 = CARTESIAN_POINT ( 'NONE',  ( -16.59214072325443468, 103.2641834162360936, -33.18428144650886935 ) ) ;
#230 = CARTESIAN_POINT ( 'NONE',  ( -0.3910879220260797262, 104.9672912320454117, -0.7821758440521594524 ) ) ;
#231 = ORIENTED_EDGE ( 'NONE', *, *, #515, .T. ) ;
#232 = CARTESIAN_POINT ( 'NONE',  ( -22.20062742315682414, 92.97224974267305697, -44.40125484631366248 ) ) ;
#233 = CARTESIAN_POINT ( 'NONE',  ( -10.03648359438387239, 94.85355996640683429, -1.229114750855713219E-15 ) ) ;
#234 = CARTESIAN_POINT ( 'NONE',  ( -35.51298973387820723, 37.36510694205551886, -4.349086920574676094E-15 ) ) ;
#235 = DIRECTION ( 'NONE',  ( 0.000000000000000000, 0.000000000000000000, 1.000000000000000000 ) ) ;
#236 = CARTESIAN_POINT ( 'NONE',  ( -3.988835411096326666, 114.3641668309545594, -4.884914518524733971E-16 ) ) ;
#237 = CARTESIAN_POINT ( 'NONE',  ( -0.07435801584409075515, 104.9992606392339809, -9.106230609441391126E-18 ) ) ;
#238 = CARTESIAN_POINT ( 'NONE',  ( -3.988835411096325778, 114.3641668309545594, -7.977670822192651556 ) ) ;
#239 = CARTESIAN_POINT ( 'NONE',  ( 6.518137678910544075, 113.2961024464049871, -13.03627535782108815 ) ) ;
#240 = CARTESIAN_POINT ( 'NONE',  ( -0.1682816855854301630, 114.9999999999999858, -2.060856276073183242E-17 ) ) ;
#241 = CARTESIAN_POINT ( 'NONE',  ( 17.79499309743859570, 75.94458874243358082, 35.58998619487721271 ) ) ;
#242 = CARTESIAN_POINT ( 'NONE',  ( -27.26707534709303715, 15.50349594028027056, -54.53415069418607430 ) ) ;
#243 = CARTESIAN_POINT ( 'NONE',  ( -0.8603087164077423132, 104.8536745828165380, 1.720617432815483960 ) ) ;
#244 = CARTESIAN_POINT ( 'NONE',  ( -34.47483639530960176, 45.61961002895164796, -4.221949804264458143E-15 ) ) ;
#245 = CARTESIAN_POINT ( 'NONE',  ( -27.60284636521528512, 78.15511361868111351, -3.380373744851705055E-15 ) ) ;
#246 = CARTESIAN_POINT ( 'NONE',  ( 1.718983956971749549, 114.8858423590293967, 4.210296401382209299E-16 ) ) ;
#247 = FILL_AREA_STYLE ('',( #208 ) ) ;
#248 = APPLICATION_CONTEXT ( 'automotive_design' ) ;
#249 = EDGE_LOOP ( 'NONE', ( #502, #103, #18 ) ) ;
#250 = CARTESIAN_POINT ( 'NONE',  ( -14.28502261206536872, 106.4417115289639497, -1.749410721761341641E-15 ) ) ;
#251 = CARTESIAN_POINT ( 'NONE',  ( -8.329475628745929677E-13, 114.9999999999999716, 1.665895125749185128E-12 ) ) ;
#252 = CARTESIAN_POINT ( 'NONE',  ( 12.69360389172227244, 89.68673381387900179, 3.109036275128413154E-15 ) ) ;
#253 = DIRECTION ( 'NONE',  ( 0.000000000000000000, 0.000000000000000000, 1.000000000000000000 ) ) ;
#254 = CARTESIAN_POINT ( 'NONE',  ( 1.946299194194384241E-12, 104.9999999999999858, 4.767058156706451448E-28 ) ) ;
#255 = CARTESIAN_POINT ( 'NONE',  ( 1.946299194194384645E-12, 104.9999999999999716, -3.892598388388767674E-12 ) ) ;
#256 = CARTESIAN_POINT ( 'NONE',  ( -24.37386908212508985, 46.27047426223852256, 48.74773816425014417 ) ) ;
#257 = CARTESIAN_POINT ( 'NONE',  ( 5.821944985844387688, 100.9638734424734423, 1.425965258345262332E-15 ) ) ;
#258 = CARTESIAN_POINT ( 'NONE',  ( 0.2163907479956065916, 104.9905982072333472, 0.000000000000000000 ) ) ;
#259 = APPLICATION_CONTEXT ( 'automotive_design' ) ;
#260 = CARTESIAN_POINT ( 'NONE',  ( -37.31972729657160670, 12.48744494423360152, -4.570348457879851993E-15 ) ) ;
#261 = CARTESIAN_POINT ( 'NONE',  ( 24.99563642055399981, 86.05949782867999431, 49.99127284110802094 ) ) ;
#262 = CARTESIAN_POINT ( 'NONE',  ( -0.3910879220260799483, 104.9672912320454117, 0.7821758440521594524 ) ) ;
#263 = CARTESIAN_POINT ( 'NONE',  ( -3.988835411096326666, 114.3641668309545594, -4.884914518524733971E-16 ) ) ;
#264 =( GEOMETRIC_REPRESENTATION_CONTEXT ( 3 ) GLOBAL_UNCERTAINTY_ASSIGNED_CONTEXT ( ( #197 ) ) GLOBAL_UNIT_ASSIGNED_CONTEXT ( ( #184, #445, #609 ) ) REPRESENTATION_CONTEXT ( 'NONE', 'WORKASPACE' ) );
#265 = CARTESIAN_POINT ( 'NONE',  ( 35.51298973387820723, 37.36510694205551886, 0.000000000000000000 ) ) ;
#266 = CARTESIAN_POINT ( 'NONE',  ( 1.946299194194384241E-12, 104.9999999999999858, 0.000000000000000000 ) ) ;
#267 = CARTESIAN_POINT ( 'NONE',  ( -2.417267870994373347, 114.7697713102047175, 4.834535741988744029 ) ) ;
#268 = ADVANCED_FACE ( 'NONE', ( #366, #473 ), #684, .F. ) ;
#269 = DIRECTION ( 'NONE',  ( 0.000000000000000000, 0.000000000000000000, 1.000000000000000000 ) ) ;
#270 = CARTESIAN_POINT ( 'NONE',  ( 2.430432937913059366, 104.0914729575759310, 0.000000000000000000 ) ) ;
#271 = CARTESIAN_POINT ( 'NONE',  ( 31.64539161236489662, 62.01512121903378016, 0.000000000000000000 ) ) ;
#272 = CARTESIAN_POINT ( 'NONE',  ( 34.47483639530960176, 45.61961002895164796, 0.000000000000000000 ) ) ;
#273 = CARTESIAN_POINT ( 'NONE',  ( -12.69360389172227244, 89.68673381387900179, -1.554518137564206577E-15 ) ) ;
#274 = CARTESIAN_POINT ( 'NONE',  ( 22.20062742315683479, 92.97224974267305697, 0.000000000000000000 ) ) ;
#275 = CARTESIAN_POINT ( 'NONE',  ( -37.46714336315370275, 6.249374420304287803, -4.588401719288117579E-15 ) ) ;
#276 = AXIS2_PLACEMENT_3D ( 'NONE', #195, #400, #565 ) ;
#277 = CARTESIAN_POINT ( 'NONE',  ( 3.926730661790371002, 102.9498440671084438, -7.853461323580740228 ) ) ;
#278 = CARTESIAN_POINT ( 'NONE',  ( 27.60284636521528157, 78.15511361868111351, -55.20569273043054892 ) ) ;
#279 = CARTESIAN_POINT ( 'NONE',  ( -7.682404941383224717, 98.52911379696884353, -9.408232621218774479E-16 ) ) ;
#280 = CARTESIAN_POINT ( 'NONE',  ( 24.99563642055401758, 86.05949782867999431, -49.99127284110802094 ) ) ;
#281 = CARTESIAN_POINT ( 'NONE',  ( -0.6166829568150697938, 104.9210193540301219, -7.552188091523007361E-17 ) ) ;
#282 = CARTESIAN_POINT ( 'NONE',  ( -27.60284636521528512, 78.15511361868111351, -3.380373744851705055E-15 ) ) ;
#283 = CARTESIAN_POINT ( 'NONE',  ( -0.4961823954221951660, 104.9477921819924688, -6.076481823470577236E-17 ) ) ;
#284 = CARTESIAN_POINT ( 'NONE',  ( 3.988835411096326666, 114.3641668309545594, 0.000000000000000000 ) ) ;
#285 = CARTESIAN_POINT ( 'NONE',  ( 1.946299194194384241E-12, 104.9999999999999858, 0.000000000000000000 ) ) ;
#286 = CARTESIAN_POINT ( 'NONE',  ( 0.1682816855854301630, 114.9999999999999858, 0.000000000000000000 ) ) ;
#287 = CARTESIAN_POINT ( 'NONE',  ( 27.49999901458401297, 5.165780398619439495, -54.99999802916801173 ) ) ;
#288 = ORIENTED_EDGE ( 'NONE', *, *, #388, .F. ) ;
#289 = CARTESIAN_POINT ( 'NONE',  ( 1.718983956971749549, 114.8858423590293967, 0.000000000000000000 ) ) ;
#290 = CARTESIAN_POINT ( 'NONE',  ( -24.37386908212507919, 46.27047426223852966, -2.984938075426111793E-15 ) ) ;
#291 = CARTESIAN_POINT ( 'NONE',  ( -27.49999901458400586, 5.165780398619439495, -54.99999802916801173 ) ) ;
#292 = ORIENTED_EDGE ( 'NONE', *, *, #224, .F. ) ;
#293 = CARTESIAN_POINT ( 'NONE',  ( -29.79724349199509348, 70.12809412042406620, 59.59448698399014432 ) ) ;
#294 = CARTESIAN_POINT ( 'NONE',  ( -37.49999960152841538, 2.088881362321191482, -4.592425448003880161E-15 ) ) ;
#295 = CARTESIAN_POINT ( 'NONE',  ( 1.055936071880601235, 114.9639777448462326, 2.586297461065615895E-16 ) ) ;
#296 = CARTESIAN_POINT ( 'NONE',  ( -17.79499309743860991, 75.94458874243358082, 35.58998619487719850 ) ) ;
#297 = CARTESIAN_POINT ( 'NONE',  ( -0.02889587933406566334, 104.9999999999999716, 0.05779175866813129891 ) ) ;
#298 = CARTESIAN_POINT ( 'NONE',  ( 8.329475628745928667E-13, 114.9999999999999716, -1.665895125749185330E-12 ) ) ;
#299 = CARTESIAN_POINT ( 'NONE',  ( -1.718983956971750215, 114.8858423590293967, 3.437967913943498210 ) ) ;
#300 = CARTESIAN_POINT ( 'NONE',  ( -0.02889587933406565987, 104.9999999999999858, -3.538724613501165943E-18 ) ) ;
#301 = CARTESIAN_POINT ( 'NONE',  ( 7.682404941383224717, 98.52911379696884353, 0.000000000000000000 ) ) ;
#302 = CARTESIAN_POINT ( 'NONE',  ( 10.03162159818834454, 110.8760462480236555, 20.06324319637669973 ) ) ;
#303 = CARTESIAN_POINT ( 'NONE',  ( 37.49999960152841538, 2.088881362321191482, 0.000000000000000000 ) ) ;
#304 = CARTESIAN_POINT ( 'NONE',  ( 0.2469314272306926683, 104.9873158898886487, 0.4938628544613855031 ) ) ;
#305 = CARTESIAN_POINT ( 'NONE',  ( 17.79499309743860280, 75.94458874243358082, 0.000000000000000000 ) ) ;
#306 = CARTESIAN_POINT ( 'NONE',  ( 27.50000000000016698, -1.907583608838430902E-06, 55.00000000000035527 ) ) ;
#307 = CARTESIAN_POINT ( 'NONE',  ( -1.126889523149363415, 104.7566420921074979, -1.380041647517555199E-16 ) ) ;
#308 = CARTESIAN_POINT ( 'NONE',  ( 0.07435801584409075515, 104.9992606392339809, 0.000000000000000000 ) ) ;
#309 = DIRECTION ( 'NONE',  ( 0.000000000000000000, 0.000000000000000000, 1.000000000000000000 ) ) ;
#310 = CARTESIAN_POINT ( 'NONE',  ( -0.2469314272306927516, 104.9873158898886629, -3.024037819669554230E-17 ) ) ;
#311 = CARTESIAN_POINT ( 'NONE',  ( 0.2469314272306927516, 104.9873158898886629, 0.000000000000000000 ) ) ;
#312 = CARTESIAN_POINT ( 'NONE',  ( 2.417267870994372903, 114.7697713102047175, 0.000000000000000000 ) ) ;
#313 = CARTESIAN_POINT ( 'NONE',  ( -22.20062742315684190, 92.97224974267305697, 44.40125484631366248 ) ) ;
#314 = CARTESIAN_POINT ( 'NONE',  ( -10.03648359438387416, 94.85355996640683429, 20.07296718876774122 ) ) ;
#315 = CARTESIAN_POINT ( 'NONE',  ( 1.946299194194384241E-12, 104.9999999999999858, 0.000000000000000000 ) ) ;
#316 = PRODUCT_RELATED_PRODUCT_CATEGORY ( 'part', '', ( #483 ) ) ;
#317 = CARTESIAN_POINT ( 'NONE',  ( 12.08770666787077452, 108.9527019820046689, 2.960634255968012570E-15 ) ) ;
#318 = CARTESIAN_POINT ( 'NONE',  ( 36.32542350508992968, 29.08639848986453558, 72.65084701017990199 ) ) ;
#319 = CARTESIAN_POINT ( 'NONE',  ( -1.126889523149363193, 104.7566420921074979, -2.253779046298726385 ) ) ;
#320 = CARTESIAN_POINT ( 'NONE',  ( 3.086468832222481584, 114.6170262203957435, 6.172937664444964057 ) ) ;
#321 = CARTESIAN_POINT ( 'NONE',  ( 1.055936071880601235, 114.9639777448462326, 0.000000000000000000 ) ) ;
#322 = CARTESIAN_POINT ( 'NONE',  ( -19.34899955152706497, 98.72170483354537396, 38.69799910305412283 ) ) ;
#323 = CARTESIAN_POINT ( 'NONE',  ( 0.8603087164077422022, 104.8536745828165380, -1.720617432815483960 ) ) ;
#324 = CARTESIAN_POINT ( 'NONE',  ( 16.59214072325443823, 103.2641834162361079, 0.000000000000000000 ) ) ;
#325 = CARTESIAN_POINT ( 'NONE',  ( -37.50000000000000711, 1.058791184067875424E-22, 74.99999999999998579 ) ) ;
#326 = CARTESIAN_POINT ( 'NONE',  ( 0.8603087164077422022, 104.8536745828165522, 0.000000000000000000 ) ) ;
#327 = CARTESIAN_POINT ( 'NONE',  ( -37.31972729657160670, 12.48744494423360152, -4.570348457879851993E-15 ) ) ;
#328 = CARTESIAN_POINT ( 'NONE',  ( -10.03648359438387239, 94.85355996640683429, -1.229114750855713219E-15 ) ) ;
#329 = CARTESIAN_POINT ( 'NONE',  ( 19.34899955152706141, 98.72170483354535975, 0.000000000000000000 ) ) ;
#330 = CARTESIAN_POINT ( 'NONE',  ( 22.13140133133406451, 58.84893421858518536, 0.000000000000000000 ) ) ;
#331 = EDGE_LOOP ( 'NONE', ( #124, #288 ) ) ;
#332 = CARTESIAN_POINT ( 'NONE',  ( 36.92428090845916699, 20.79764482368184986, -73.84856181691831978 ) ) ;
#333 = CARTESIAN_POINT ( 'NONE',  ( -0.6166829568150697938, 104.9210193540301219, -7.552188091523007361E-17 ) ) ;
#334 = ORIENTED_EDGE ( 'NONE', *, *, #151, .F. ) ;
#335 = CARTESIAN_POINT ( 'NONE',  ( -31.64539161236489306, 62.01512121903379438, -63.29078322472978613 ) ) ;
#336 = CARTESIAN_POINT ( 'NONE',  ( -7.682404941383224717, 98.52911379696884353, -9.408232621218774479E-16 ) ) ;
#337 = ORIENTED_EDGE ( 'NONE', *, *, #633, .F. ) ;
#338 = CARTESIAN_POINT ( 'NONE',  ( -12.08770666787077452, 108.9527019820046689, -1.480317127984006285E-15 ) ) ;
#339 = ADVANCED_FACE ( 'NONE', ( #116 ), #183, .F. ) ;
#340 = CARTESIAN_POINT ( 'NONE',  ( -0.2163907479956065916, 104.9905982072333472, -2.650022368979211323E-17 ) ) ;
#341 = CARTESIAN_POINT ( 'NONE',  ( -31.64539161236489662, 62.01512121903378016, -3.875442754584716814E-15 ) ) ;
#342 = CARTESIAN_POINT ( 'NONE',  ( -10.03162159818834809, 110.8760462480236555, -20.06324319637669618 ) ) ;
#343 = CARTESIAN_POINT ( 'NONE',  ( -19.82023728434451826, 68.70224662669808424, -2.427279014861354196E-15 ) ) ;
#344 = CARTESIAN_POINT ( 'NONE',  ( 31.64539161236488241, 62.01512121903379438, 63.29078322472979323 ) ) ;
#345 = CARTESIAN_POINT ( 'NONE',  ( -1.055936071880601235, 114.9639777448462326, -1.293148730532807947E-16 ) ) ;
#346 = CARTESIAN_POINT ( 'NONE',  ( -0.1682816855854302185, 115.0000000000000000, 0.3365633711708602704 ) ) ;
#347 = VERTEX_POINT ( 'NONE', #448 ) ;
#348 = CARTESIAN_POINT ( 'NONE',  ( -0.1682816855854301630, 114.9999999999999858, -2.060856276073183242E-17 ) ) ;
#349 = CARTESIAN_POINT ( 'NONE',  ( -6.518137678910546740, 113.2961024464049871, 13.03627535782108815 ) ) ;
#350 =( NAMED_UNIT ( * ) PLANE_ANGLE_UNIT ( ) SI_UNIT ( $, .RADIAN. ) );
#351 = DIRECTION ( 'NONE',  ( 1.000000000000000000, 0.000000000000000000, 0.000000000000000000 ) ) ;
#352 = CARTESIAN_POINT ( 'NONE',  ( 3.926730661790370558, 102.9498440671084438, 9.617716272150689134E-16 ) ) ;
#353 = CARTESIAN_POINT ( 'NONE',  ( -31.64539161236489662, 62.01512121903378016, -3.875442754584716814E-15 ) ) ;
#354 = CARTESIAN_POINT ( 'NONE',  ( -3.988835411096326666, 114.3641668309545594, -4.884914518524733971E-16 ) ) ;
#355 = CARTESIAN_POINT ( 'NONE',  ( -37.50000000000000000, 0.000000000000000000, -4.592425496802574367E-15 ) ) ;
#356 = CARTESIAN_POINT ( 'NONE',  ( 2.430432937913059366, 104.0914729575759310, 5.952843835915052037E-16 ) ) ;
#357 = CARTESIAN_POINT ( 'NONE',  ( 1.568237283953980654, 104.5643176427860226, 0.000000000000000000 ) ) ;
#358 = CARTESIAN_POINT ( 'NONE',  ( -27.26707534709304426, 15.50349594028026878, -3.339253654592719900E-15 ) ) ;
#359 = CARTESIAN_POINT ( 'NONE',  ( -0.2469314272306928348, 104.9873158898886487, 0.4938628544613854476 ) ) ;
#360 = CARTESIAN_POINT ( 'NONE',  ( 27.50000000000018119, -1.907583604965346069E-06, 0.000000000000000000 ) ) ;
#361 = AXIS2_PLACEMENT_3D ( 'NONE', #144, #253, #351 ) ;
#362 = CARTESIAN_POINT ( 'NONE',  ( 33.19362663274323211, 53.84022639650298458, 0.000000000000000000 ) ) ;
#363 = CARTESIAN_POINT ( 'NONE',  ( 27.60284636521528512, 78.15511361868111351, 6.760747489703410109E-15 ) ) ;
#364 = CARTESIAN_POINT ( 'NONE',  ( 1.126889523149363415, 104.7566420921074979, 2.760083295035110398E-16 ) ) ;
#365 = CARTESIAN_POINT ( 'NONE',  ( -3.086468832222482916, 114.6170262203957435, -3.779834176049332981E-16 ) ) ;
#366 = FACE_OUTER_BOUND ( 'NONE', #331, .T. ) ;
#367 = CARTESIAN_POINT ( 'NONE',  ( 24.99563642055401402, 86.05949782867999431, 6.122165227016494840E-15 ) ) ;
#368 = CARTESIAN_POINT ( 'NONE',  ( 10.03648359438387239, 94.85355996640683429, 2.458229501711426439E-15 ) ) ;
#369 = CARTESIAN_POINT ( 'NONE',  ( 0.000000000000000000, 115.0000000000000000, 0.000000000000000000 ) ) ;
#370 = CARTESIAN_POINT ( 'NONE',  ( -3.086468832222483361, 114.6170262203957435, 6.172937664444964057 ) ) ;
#371 = CARTESIAN_POINT ( 'NONE',  ( -37.46714336315370986, 6.249374420304289579, 74.93428672630739129 ) ) ;
#372 = CARTESIAN_POINT ( 'NONE',  ( 0.3910879220260798372, 104.9672912320454259, 0.000000000000000000 ) ) ;
#373 = CARTESIAN_POINT ( 'NONE',  ( -10.03162159818834986, 110.8760462480236555, -1.228519328047882058E-15 ) ) ;
#374 = CARTESIAN_POINT ( 'NONE',  ( 37.31972729657160670, 12.48744494423360152, 9.140696915759703986E-15 ) ) ;
#375 = CARTESIAN_POINT ( 'NONE',  ( 12.69360389172227244, 89.68673381387900179, -25.38720778344454132 ) ) ;
#376 = CARTESIAN_POINT ( 'NONE',  ( -33.19362663274323211, 53.84022639650298458, -4.065046860788133408E-15 ) ) ;
#377 = CARTESIAN_POINT ( 'NONE',  ( 0.5026003116208380694, 114.9934503533469297, 0.000000000000000000 ) ) ;
#378 = CARTESIAN_POINT ( 'NONE',  ( -0.8603087164077422022, 104.8536745828165522, -1.053574315827309485E-16 ) ) ;
#379 = CARTESIAN_POINT ( 'NONE',  ( -36.32542350508994389, 29.08639848986453558, -72.65084701017988777 ) ) ;
#380 = CARTESIAN_POINT ( 'NONE',  ( 0.6166829568150697938, 104.9210193540301077, -1.233365913630139366 ) ) ;
#381 = CARTESIAN_POINT ( 'NONE',  ( -19.34899955152706141, 98.72170483354537396, -38.69799910305412283 ) ) ;
#382 = CARTESIAN_POINT ( 'NONE',  ( -15.43683597845520339, 82.97523569392093634, -30.87367195691041033 ) ) ;
#383 = CARTESIAN_POINT ( 'NONE',  ( 37.31972729657160670, 12.48744494423360152, 0.000000000000000000 ) ) ;
#384 = CARTESIAN_POINT ( 'NONE',  ( -0.02889587933406565987, 104.9999999999999858, -3.538724613501165943E-18 ) ) ;
#385 = CARTESIAN_POINT ( 'NONE',  ( 34.47483639530960176, 45.61961002895164796, 0.000000000000000000 ) ) ;
#386 = CARTESIAN_POINT ( 'NONE',  ( -17.79499309743860280, 75.94458874243358082, -2.179258133762743236E-15 ) ) ;
#387 = ORIENTED_EDGE ( 'NONE', *, *, #461, .F. ) ;
#388 = EDGE_CURVE ( 'NONE', #77, #347, #472, .T. ) ;
#389 = CARTESIAN_POINT ( 'NONE',  ( -34.47483639530960176, 45.61961002895164796, -4.221949804264458143E-15 ) ) ;
#390 = ADVANCED_BREP_SHAPE_REPRESENTATION ( 'NoseCone', ( #68, #361 ), #264 ) ;
#391 = EDGE_LOOP ( 'NONE', ( #435, #185, #334 ) ) ;
#392 = CARTESIAN_POINT ( 'NONE',  ( 0.1682816855854301630, 115.0000000000000000, -0.3365633711708602704 ) ) ;
#393 = CARTESIAN_POINT ( 'NONE',  ( 27.26707534709304426, 15.50349594028026878, 0.000000000000000000 ) ) ;
#394 = CARTESIAN_POINT ( 'NONE',  ( -33.19362663274323211, 53.84022639650298458, -4.065046860788133408E-15 ) ) ;
#395 = CARTESIAN_POINT ( 'NONE',  ( 8.222052795606618503, 112.2576286265869072, 0.000000000000000000 ) ) ;
#396 = CARTESIAN_POINT ( 'NONE',  ( -8.222052795606618503, 112.2576286265869072, -1.006911063856019191E-15 ) ) ;
#397 = CARTESIAN_POINT ( 'NONE',  ( -27.50000000000018119, -1.907583608838430902E-06, 55.00000000000035527 ) ) ;
#398 = CARTESIAN_POINT ( 'NONE',  ( -27.26707534709304426, 15.50349594028026878, -3.339253654592719900E-15 ) ) ;
#399 = CARTESIAN_POINT ( 'NONE',  ( -6.518137678910544963, 113.2961024464049729, -7.982416444879557405E-16 ) ) ;
#400 = DIRECTION ( 'NONE',  ( -0.000000000000000000, 1.000000000000000000, -0.000000000000000000 ) ) ;
#401 = CARTESIAN_POINT ( 'NONE',  ( 12.69360389172226533, 89.68673381387900179, 25.38720778344454132 ) ) ;
#402 = CARTESIAN_POINT ( 'NONE',  ( 1.568237283953979544, 104.5643176427860226, 3.136474567907960420 ) ) ;
#403 = CARTESIAN_POINT ( 'NONE',  ( -24.99563642055401402, 86.05949782867999431, -3.061082613508247420E-15 ) ) ;
#404 = CARTESIAN_POINT ( 'NONE',  ( -8.329475628745927657E-13, 114.9999999999999716, -1.020066566731958679E-28 ) ) ;
#405 = CARTESIAN_POINT ( 'NONE',  ( 17.79499309743860280, 75.94458874243358082, 4.358516267525486471E-15 ) ) ;
#406 = CARTESIAN_POINT ( 'NONE',  ( 0.02889587933406564946, 104.9999999999999716, 0.05779175866813130585 ) ) ;
#407 = CARTESIAN_POINT ( 'NONE',  ( 0.4961823954221951660, 104.9477921819924688, 0.000000000000000000 ) ) ;
#408 = CARTESIAN_POINT ( 'NONE',  ( 15.43683597845519984, 82.97523569392093634, 30.87367195691041033 ) ) ;
#409 = CARTESIAN_POINT ( 'NONE',  ( 0.02889587933406565987, 104.9999999999999716, -0.05779175866813129891 ) ) ;
#410 = CARTESIAN_POINT ( 'NONE',  ( -37.31972729657161381, 12.48744494423360152, 74.63945459314319919 ) ) ;
#411 = CARTESIAN_POINT ( 'NONE',  ( -7.682404941383224717, 98.52911379696884353, -9.408232621218774479E-16 ) ) ;
#412 = CARTESIAN_POINT ( 'NONE',  ( 0.07435801584409074128, 104.9992606392339667, -0.1487160316881814826 ) ) ;
#413 = CARTESIAN_POINT ( 'NONE',  ( -36.92428090845916699, 20.79764482368184986, -4.521920242536224768E-15 ) ) ;
#414 = CARTESIAN_POINT ( 'NONE',  ( -24.99563642055401758, 86.05949782867999431, 49.99127284110802094 ) ) ;
#415 = CARTESIAN_POINT ( 'NONE',  ( 1.126889523149362970, 104.7566420921074979, 2.253779046298727273 ) ) ;
#416 = CARTESIAN_POINT ( 'NONE',  ( 1.946299194194384241E-12, 104.9999999999999858, 0.000000000000000000 ) ) ;
#417 = CARTESIAN_POINT ( 'NONE',  ( -8.222052795606620279, 112.2576286265869072, 16.44410559121323701 ) ) ;
#418 = CARTESIAN_POINT ( 'NONE',  ( 0.000000000000000000, 115.0000000000000000, 0.000000000000000000 ) ) ;
#419 = CARTESIAN_POINT ( 'NONE',  ( -8.222052795606618503, 112.2576286265869072, -1.006911063856019191E-15 ) ) ;
#420 = CARTESIAN_POINT ( 'NONE',  ( -5.115383434812571295, 113.9551157002085091, 10.23076686962513726 ) ) ;
#421 = CARTESIAN_POINT ( 'NONE',  ( 0.000000000000000000, -1.907583604965346069E-06, 0.000000000000000000 ) ) ;
#422 = CARTESIAN_POINT ( 'NONE',  ( -17.79499309743860280, 75.94458874243358082, -2.179258133762743236E-15 ) ) ;
#423 = CARTESIAN_POINT ( 'NONE',  ( 36.32542350508995099, 29.08639848986453558, 0.000000000000000000 ) ) ;
#424 = CARTESIAN_POINT ( 'NONE',  ( 14.28502261206536872, 106.4417115289639497, 0.000000000000000000 ) ) ;
#425 = CARTESIAN_POINT ( 'NONE',  ( -19.82023728434451826, 68.70224662669808424, -2.427279014861354196E-15 ) ) ;
#426 = CARTESIAN_POINT ( 'NONE',  ( 29.79724349199508282, 70.12809412042406620, -59.59448698399015854 ) ) ;
#427 = CARTESIAN_POINT ( 'NONE',  ( -5.821944985844385911, 100.9638734424734565, -11.64388997168877182 ) ) ;
#428 = CARTESIAN_POINT ( 'NONE',  ( 29.79724349199508282, 70.12809412042408042, 0.000000000000000000 ) ) ;
#429 = CARTESIAN_POINT ( 'NONE',  ( -1.126889523149363415, 104.7566420921074979, -1.380041647517555199E-16 ) ) ;
#430 = CARTESIAN_POINT ( 'NONE',  ( -14.28502261206536872, 106.4417115289639497, -1.749410721761341641E-15 ) ) ;
#431 = CARTESIAN_POINT ( 'NONE',  ( -0.6166829568150696828, 104.9210193540301077, -1.233365913630139366 ) ) ;
#432 = CARTESIAN_POINT ( 'NONE',  ( -16.59214072325443823, 103.2641834162361079, -2.031951202773599834E-15 ) ) ;
#433 = CARTESIAN_POINT ( 'NONE',  ( 35.51298973387820723, 37.36510694205551886, 0.000000000000000000 ) ) ;
#434 = CARTESIAN_POINT ( 'NONE',  ( -15.43683597845520694, 82.97523569392093634, -1.890467176997786936E-15 ) ) ;
#435 = ORIENTED_EDGE ( 'NONE', *, *, #515, .F. ) ;
#436 = CARTESIAN_POINT ( 'NONE',  ( 3.086468832222482916, 114.6170262203957435, -6.172937664444964057 ) ) ;
#437 = CARTESIAN_POINT ( 'NONE',  ( -12.69360389172227244, 89.68673381387900179, -1.554518137564206577E-15 ) ) ;
#438 = CARTESIAN_POINT ( 'NONE',  ( 2.417267870994372903, 114.7697713102047175, -4.834535741988744029 ) ) ;
#439 = AXIS2_PLACEMENT_3D ( 'NONE', #74, #21, #235 ) ;
#440 = CARTESIAN_POINT ( 'NONE',  ( -3.926730661790370558, 102.9498440671084438, -4.808858136075344567E-16 ) ) ;
#441 = CARTESIAN_POINT ( 'NONE',  ( -35.51298973387822144, 37.36510694205551886, 71.02597946775641446 ) ) ;
#442 = CARTESIAN_POINT ( 'NONE',  ( 0.5026003116208380694, 114.9934503533469297, 0.000000000000000000 ) ) ;
#443 = CARTESIAN_POINT ( 'NONE',  ( 8.329475628745923618E-13, 114.9999999999999716, 1.665895125749185330E-12 ) ) ;
#444 =( LENGTH_UNIT ( ) NAMED_UNIT ( * ) SI_UNIT ( .MILLI., .METRE. ) );
#445 =( NAMED_UNIT ( * ) PLANE_ANGLE_UNIT ( ) SI_UNIT ( $, .RADIAN. ) );
#446 = CARTESIAN_POINT ( 'NONE',  ( -27.60284636521528512, 78.15511361868111351, -3.380373744851705055E-15 ) ) ;
#447 = CARTESIAN_POINT ( 'NONE',  ( -5.115383434812569519, 113.9551157002084949, -6.264537949854606627E-16 ) ) ;
#448 = CARTESIAN_POINT ( 'NONE',  ( 37.50000000000000000, 0.000000000000000000, 0.000000000000000000 ) ) ;
#449 = CARTESIAN_POINT ( 'NONE',  ( -12.69360389172227244, 89.68673381387900179, -1.554518137564206577E-15 ) ) ;
#450 = CARTESIAN_POINT ( 'NONE',  ( 27.50000000000018119, -1.907583608838430902E-06, -55.00000000000035527 ) ) ;
#451 = CARTESIAN_POINT ( 'NONE',  ( -1.568237283953980654, 104.5643176427860226, -1.920536770097781068E-16 ) ) ;
#452 = CARTESIAN_POINT ( 'NONE',  ( 34.47483639530960176, 45.61961002895164796, 8.443899608528916285E-15 ) ) ;
#453 = CARTESIAN_POINT ( 'NONE',  ( -37.31972729657160670, 12.48744494423360152, -4.570348457879851993E-15 ) ) ;
#454 = CARTESIAN_POINT ( 'NONE',  ( -1.718983956971749549, 114.8858423590293967, -2.105148200691104649E-16 ) ) ;
#455 = ADVANCED_FACE ( 'NONE', ( #617 ), #579, .F. ) ;
#456 = CARTESIAN_POINT ( 'NONE',  ( 1.946299194194383433E-12, 104.9999999999999716, 3.892598388388769290E-12 ) ) ;
#457 = CARTESIAN_POINT ( 'NONE',  ( 35.51298973387820723, 37.36510694205551886, 8.698173841149352188E-15 ) ) ;
#458 = CARTESIAN_POINT ( 'NONE',  ( 0.02889587933406565987, 104.9999999999999858, 0.000000000000000000 ) ) ;
#459 = CARTESIAN_POINT ( 'NONE',  ( -37.50000000000000000, 1.058791184067875424E-22, -4.592425496802574367E-15 ) ) ;
#460 = CARTESIAN_POINT ( 'NONE',  ( -19.82023728434451826, 68.70224662669808424, 39.64047456868902941 ) ) ;
#461 = EDGE_CURVE ( 'NONE', #77, #555, #201, .T. ) ;
#462 = CARTESIAN_POINT ( 'NONE',  ( 5.821944985844385911, 100.9638734424734565, 11.64388997168877538 ) ) ;
#463 = CARTESIAN_POINT ( 'NONE',  ( -1.946299194194383837E-12, 104.9999999999999716, -3.892598388388767674E-12 ) ) ;
#464 = CARTESIAN_POINT ( 'NONE',  ( -27.50000000000018119, -1.907583608838430902E-06, -3.367778697655243396E-15 ) ) ;
#465 = SHAPE_DEFINITION_REPRESENTATION ( #211, #390 ) ;
#466 = CARTESIAN_POINT ( 'NONE',  ( 0.8603087164077422022, 104.8536745828165522, 2.107148631654618969E-16 ) ) ;
#467 = B_SPLINE_CURVE_WITH_KNOTS ( 'NONE', 3,
 ( #285, #384, #237, #340, #559, #550, #283, #333, #495, #23, #17, #497, #440, #656, #336, #233, #437, #434, #386, #605, #599, #193, #507, #81, #133, #27 ),
 .UNSPECIFIED., .F., .F.,
 ( 4, 1, 1, 1, 1, 1, 1, 1, 1, 1, 1, 1, 1, 1, 1, 1, 1, 1, 1, 1, 1, 1, 1, 4 ),
 ( 0.02897191548834833832, 0.03276499394347198030, 0.03655807239859561880, 0.04035115085371925731, 0.04414422930884289581, 0.04793730776396653431, 0.05173038621909017282, 0.05931654312933744982, 0.06690270003958473377, 0.07448885694983201078, 0.08966117077032656479, 0.1200057984113156728, 0.1503504260523047809, 0.1806950536932939166, 0.2110396813342830247, 0.2717289366162612407, 0.3324181918982395123, 0.3931074471802177284, 0.4537967024621959444, 0.5144859577441741605, 0.6358644683081307036, 0.7572429788720871358, 0.8786214894360435679, 1.000000000000000000 ),
 .UNSPECIFIED. ) ;
#468 = CARTESIAN_POINT ( 'NONE',  ( 0.2163907479956065916, 104.9905982072333614, -0.4327814959912130166 ) ) ;
#469 = DIRECTION ( 'NONE',  ( -0.000000000000000000, 1.000000000000000000, -0.000000000000000000 ) ) ;
#470 = CARTESIAN_POINT ( 'NONE',  ( 0.8603087164077416471, 104.8536745828165380, 1.720617432815483960 ) ) ;
#471 = CARTESIAN_POINT ( 'NONE',  ( 10.03648359438387239, 94.85355996640683429, 0.000000000000000000 ) ) ;
#472 = CIRCLE ( 'NONE', #276, 37.50000000000000000 ) ;
#473 = FACE_BOUND ( 'NONE', #654, .T. ) ;
#474 = CARTESIAN_POINT ( 'NONE',  ( 22.20062742315683479, 92.97224974267305697, 5.437585462566393393E-15 ) ) ;
#475 = CARTESIAN_POINT ( 'NONE',  ( -6.518137678910544963, 113.2961024464049729, -7.982416444879557405E-16 ) ) ;
#476 = CARTESIAN_POINT ( 'NONE',  ( 12.08770666787077097, 108.9527019820046689, 24.17541333574154905 ) ) ;
#477 = CARTESIAN_POINT ( 'NONE',  ( 19.34899955152706141, 98.72170483354535975, 4.739138073496238123E-15 ) ) ;
#478 = CARTESIAN_POINT ( 'NONE',  ( -37.49999960152841538, 2.088881362321191482, -4.592425448003880161E-15 ) ) ;
#479 = CARTESIAN_POINT ( 'NONE',  ( -0.2469314272306927516, 104.9873158898886629, -3.024037819669554230E-17 ) ) ;
#480 = CARTESIAN_POINT ( 'NONE',  ( -34.47483639530960176, 45.61961002895164796, -4.221949804264458143E-15 ) ) ;
#481 = CARTESIAN_POINT ( 'NONE',  ( 31.64539161236489662, 62.01512121903378016, 0.000000000000000000 ) ) ;
#482 = CARTESIAN_POINT ( 'NONE',  ( -0.3910879220260798372, 104.9672912320454259, -4.789445718944282770E-17 ) ) ;
#483 = PRODUCT ( 'NoseCone', 'NoseCone', '', ( #521 ) ) ;
#484 = STYLED_ITEM ( 'NONE', ( #604 ), #68 ) ;
#485 = CARTESIAN_POINT ( 'NONE',  ( 12.08770666787077452, 108.9527019820046689, 0.000000000000000000 ) ) ;
#486 = CARTESIAN_POINT ( 'NONE',  ( 37.46714336315370275, 6.249374420304287803, 9.176803438576235158E-15 ) ) ;
#487 = CARTESIAN_POINT ( 'NONE',  ( 1.568237283953980654, 104.5643176427860226, 0.000000000000000000 ) ) ;
#488 = CARTESIAN_POINT ( 'NONE',  ( -16.59214072325443823, 103.2641834162361079, -2.031951202773599834E-15 ) ) ;
#489 = CARTESIAN_POINT ( 'NONE',  ( 1.568237283953980654, 104.5643176427860226, -3.136474567907960420 ) ) ;
#490 = CARTESIAN_POINT ( 'NONE',  ( 14.28502261206536872, 106.4417115289639497, 0.000000000000000000 ) ) ;
#491 = CARTESIAN_POINT ( 'NONE',  ( 17.79499309743860280, 75.94458874243358082, 0.000000000000000000 ) ) ;
#492 = VERTEX_POINT ( 'NONE', #416 ) ;
#493 =( BOUNDED_SURFACE ( )  B_SPLINE_SURFACE ( 3, 3, ( 
 ( #266, #255, #463, #676 ),
 ( #207, #409, #623, #101 ),
 ( #308, #412, #523, #626 ),
 ( #258, #468, #679, #158 ),
 ( #311, #51, #64, #479 ),
 ( #372, #117, #230, #482 ),
 ( #538, #535, #531, #642 ),
 ( #580, #380, #431, #281 ),
 ( #326, #323, #111, #378 ),
 ( #540, #589, #319, #429 ),
 ( #487, #489, #57, #171 ),
 ( #270, #585, #647, #226 ),
 ( #591, #277, #173, #168 ),
 ( #175, #4, #427, #11 ),
 ( #645, #8, #114, #279 ),
 ( #69, #119, #13, #328 ),
 ( #121, #375, #220, #273 ),
 ( #66, #228, #382, #650 ),
 ( #491, #60, #542, #422 ),
 ( #223, #637, #594, #425 ),
 ( #330, #15, #652, #76 ),
 ( #545, #177, #189, #34 ),
 ( #548, #131, #127, #596 ),
 ( #393, #179, #242, #398 ),
 ( #123, #287, #291, #554 ),
 ( #501, #450, #499, #71 ) ),
 .UNSPECIFIED., .F., .F., .F. ) 
 B_SPLINE_SURFACE_WITH_KNOTS ( ( 4, 1, 1, 1, 1, 1, 1, 1, 1, 1, 1, 1, 1, 1, 1, 1, 1, 1, 1, 1, 1, 1, 1, 4 ),
 ( 4, 4 ),
 ( 0.02897191548834833832, 0.03276499394347198030, 0.03655807239859561880, 0.04035115085371925731, 0.04414422930884289581, 0.04793730776396653431, 0.05173038621909017282, 0.05931654312933744982, 0.06690270003958473377, 0.07448885694983201078, 0.08966117077032656479, 0.1200057984113156728, 0.1503504260523047809, 0.1806950536932939166, 0.2110396813342830247, 0.2717289366162612407, 0.3324181918982395123, 0.3931074471802177284, 0.4537967024621959444, 0.5144859577441741605, 0.6358644683081307036, 0.7572429788720871358, 0.8786214894360435679, 1.000000000000000000 ),
 ( 0.000000000000000000, 1.000000000000000000 ),
 .UNSPECIFIED. ) 
 GEOMETRIC_REPRESENTATION_ITEM ( )  RATIONAL_B_SPLINE_SURFACE ( (
 ( 1.000000000000000000, 0.3333333333333334259, 0.3333333333333334259, 1.000000000000000000),
 ( 1.000000000000000000, 0.3333333333333334259, 0.3333333333333334259, 1.000000000000000000),
 ( 1.000000000000000000, 0.3333333333333334259, 0.3333333333333334259, 1.000000000000000000),
 ( 1.000000000000000000, 0.3333333333333334259, 0.3333333333333334259, 1.000000000000000000),
 ( 1.000000000000000000, 0.3333333333333334259, 0.3333333333333334259, 1.000000000000000000),
 ( 1.000000000000000000, 0.3333333333333334259, 0.3333333333333334259, 1.000000000000000000),
 ( 1.000000000000000000, 0.3333333333333334259, 0.3333333333333334259, 1.000000000000000000),
 ( 1.000000000000000000, 0.3333333333333334259, 0.3333333333333334259, 1.000000000000000000),
 ( 1.000000000000000000, 0.3333333333333334259, 0.3333333333333334259, 1.000000000000000000),
 ( 1.000000000000000000, 0.3333333333333334259, 0.3333333333333334259, 1.000000000000000000),
 ( 1.000000000000000000, 0.3333333333333334259, 0.3333333333333334259, 1.000000000000000000),
 ( 1.000000000000000000, 0.3333333333333334259, 0.3333333333333334259, 1.000000000000000000),
 ( 1.000000000000000000, 0.3333333333333334259, 0.3333333333333334259, 1.000000000000000000),
 ( 1.000000000000000000, 0.3333333333333334259, 0.3333333333333334259, 1.000000000000000000),
 ( 1.000000000000000000, 0.3333333333333334259, 0.3333333333333334259, 1.000000000000000000),
 ( 1.000000000000000000, 0.3333333333333334259, 0.3333333333333334259, 1.000000000000000000),
 ( 1.000000000000000000, 0.3333333333333334259, 0.3333333333333334259, 1.000000000000000000),
 ( 1.000000000000000000, 0.3333333333333334259, 0.3333333333333334259, 1.000000000000000000),
 ( 1.000000000000000000, 0.3333333333333334259, 0.3333333333333334259, 1.000000000000000000),
 ( 1.000000000000000000, 0.3333333333333334259, 0.3333333333333334259, 1.000000000000000000),
 ( 1.000000000000000000, 0.3333333333333334259, 0.3333333333333334259, 1.000000000000000000),
 ( 1.000000000000000000, 0.3333333333333334259, 0.3333333333333334259, 1.000000000000000000),
 ( 1.000000000000000000, 0.3333333333333334259, 0.3333333333333334259, 1.000000000000000000),
 ( 1.000000000000000000, 0.3333333333333334259, 0.3333333333333334259, 1.000000000000000000),
 ( 1.000000000000000000, 0.3333333333333334259, 0.3333333333333334259, 1.000000000000000000),
 ( 1.000000000000000000, 0.3333333333333334259, 0.3333333333333334259, 1.000000000000000000) ) ) 
 REPRESENTATION_ITEM ( '' )  SURFACE ( )  );
#494 = CARTESIAN_POINT ( 'NONE',  ( -24.99563642055401402, 86.05949782867999431, -3.061082613508247420E-15 ) ) ;
#495 = CARTESIAN_POINT ( 'NONE',  ( -0.8603087164077422022, 104.8536745828165522, -1.053574315827309485E-16 ) ) ;
#496 = CARTESIAN_POINT ( 'NONE',  ( -5.115383434812568630, 113.9551157002085091, -10.23076686962513726 ) ) ;
#497 = CARTESIAN_POINT ( 'NONE',  ( -2.430432937913059366, 104.0914729575759310, -2.976421917957526019E-16 ) ) ;
#498 = CARTESIAN_POINT ( 'NONE',  ( -22.20062742315683479, 92.97224974267305697, -2.718792731283196696E-15 ) ) ;
#499 = CARTESIAN_POINT ( 'NONE',  ( -27.50000000000017764, -1.907583608838430902E-06, -55.00000000000035527 ) ) ;
#500 = CARTESIAN_POINT ( 'NONE',  ( -1.718983956971749549, 114.8858423590293967, -2.105148200691104649E-16 ) ) ;
#501 = CARTESIAN_POINT ( 'NONE',  ( 27.50000000000018119, -1.907583608838430902E-06, 0.000000000000000000 ) ) ;
#502 = ORIENTED_EDGE ( 'NONE', *, *, #638, .T. ) ;
#503 = CARTESIAN_POINT ( 'NONE',  ( 29.79724349199507216, 70.12809412042406620, 59.59448698399016564 ) ) ;
#504 = CARTESIAN_POINT ( 'NONE',  ( -36.92428090845916699, 20.79764482368184986, -4.521920242536224768E-15 ) ) ;
#505 = CARTESIAN_POINT ( 'NONE',  ( -1.055936071880601235, 114.9639777448462326, -1.293148730532807947E-16 ) ) ;
#506 = CARTESIAN_POINT ( 'NONE',  ( 24.37386908212507919, 46.27047426223852966, 5.969876150852223585E-15 ) ) ;
#507 = CARTESIAN_POINT ( 'NONE',  ( -26.20321689103891316, 30.94917458379493524, -3.208968569297466529E-15 ) ) ;
#508 = EDGE_LOOP ( 'NONE', ( #387, #128, #610 ) ) ;
#509 = CARTESIAN_POINT ( 'NONE',  ( 10.03162159818834986, 110.8760462480236555, 0.000000000000000000 ) ) ;
#510 = CARTESIAN_POINT ( 'NONE',  ( -1.055936071880601457, 114.9639777448462468, 2.111872143761202025 ) ) ;
#511 = CARTESIAN_POINT ( 'NONE',  ( -26.20321689103892027, 30.94917458379493524, 52.40643378207781922 ) ) ;
#512 = CARTESIAN_POINT ( 'NONE',  ( 0.07435801584409075515, 104.9992606392339809, 1.821246121888278225E-17 ) ) ;
#513 = CARTESIAN_POINT ( 'NONE',  ( 35.51298973387818592, 37.36510694205551886, 71.02597946775641446 ) ) ;
#514 = CARTESIAN_POINT ( 'NONE',  ( 0.2163907479956065916, 104.9905982072333472, 0.000000000000000000 ) ) ;
#515 = EDGE_CURVE ( 'NONE', #492, #602, #632, .T. ) ;
#516 = CARTESIAN_POINT ( 'NONE',  ( 37.49999999999999289, 1.058791184067875424E-22, -74.99999999999998579 ) ) ;
#517 = CARTESIAN_POINT ( 'NONE',  ( 37.46714336315370275, 6.249374420304287803, 0.000000000000000000 ) ) ;
#518 = CARTESIAN_POINT ( 'NONE',  ( -3.926730661790370558, 102.9498440671084438, -4.808858136075344567E-16 ) ) ;
#519 = CARTESIAN_POINT ( 'NONE',  ( 26.20321689103891316, 30.94917458379493524, 0.000000000000000000 ) ) ;
#520 = SURFACE_SIDE_STYLE ('',( #143 ) ) ;
#521 = PRODUCT_CONTEXT ( 'NONE', #259, 'mechanical' ) ;
#522 = CARTESIAN_POINT ( 'NONE',  ( -2.430432937913059366, 104.0914729575759310, -2.976421917957526019E-16 ) ) ;
#523 = CARTESIAN_POINT ( 'NONE',  ( -0.07435801584409074128, 104.9992606392339667, -0.1487160316881814826 ) ) ;
#524 = CARTESIAN_POINT ( 'NONE',  ( 37.50000000000000000, 1.058791184067875424E-22, 9.184850993605148733E-15 ) ) ;
#525 = FACE_OUTER_BOUND ( 'NONE', #180, .T. ) ;
#526 = CARTESIAN_POINT ( 'NONE',  ( 27.26707534709304426, 15.50349594028026878, 0.000000000000000000 ) ) ;
#527 = CARTESIAN_POINT ( 'NONE',  ( -36.32542350508995099, 29.08639848986453558, -4.448581362318044056E-15 ) ) ;
#528 = CARTESIAN_POINT ( 'NONE',  ( 1.126889523149363415, 104.7566420921074979, 0.000000000000000000 ) ) ;
#529 = CARTESIAN_POINT ( 'NONE',  ( 5.115383434812569519, 113.9551157002084949, 1.252907589970921325E-15 ) ) ;
#530 = CARTESIAN_POINT ( 'NONE',  ( 24.99563642055401402, 86.05949782867999431, 0.000000000000000000 ) ) ;
#531 = CARTESIAN_POINT ( 'NONE',  ( -0.4961823954221950550, 104.9477921819924688, -0.9923647908443901100 ) ) ;
#532 = CARTESIAN_POINT ( 'NONE',  ( 3.086468832222482916, 114.6170262203957435, 7.559668352098665962E-16 ) ) ;
#533 = CARTESIAN_POINT ( 'NONE',  ( 16.59214072325443823, 103.2641834162361079, 4.063902405547199667E-15 ) ) ;
#534 = CARTESIAN_POINT ( 'NONE',  ( 36.32542350508995099, 29.08639848986453558, 0.000000000000000000 ) ) ;
#535 = CARTESIAN_POINT ( 'NONE',  ( 0.4961823954221951660, 104.9477921819924688, -0.9923647908443901100 ) ) ;
#536 = CARTESIAN_POINT ( 'NONE',  ( 16.59214072325443823, 103.2641834162360936, -33.18428144650886935 ) ) ;
#537 = CARTESIAN_POINT ( 'NONE',  ( 37.49999960152840117, 2.088881362321191482, 74.99999920305684498 ) ) ;
#538 = CARTESIAN_POINT ( 'NONE',  ( 0.4961823954221951660, 104.9477921819924688, 0.000000000000000000 ) ) ;
#539 = CARTESIAN_POINT ( 'NONE',  ( -31.64539161236489662, 62.01512121903378016, -3.875442754584716814E-15 ) ) ;
#540 = CARTESIAN_POINT ( 'NONE',  ( 1.126889523149363415, 104.7566420921074979, 0.000000000000000000 ) ) ;
#541 = CARTESIAN_POINT ( 'NONE',  ( -19.34899955152706141, 98.72170483354535975, -2.369569036748119061E-15 ) ) ;
#542 = CARTESIAN_POINT ( 'NONE',  ( -17.79499309743859925, 75.94458874243358082, -35.58998619487719850 ) ) ;
#543 = ORIENTED_EDGE ( 'NONE', *, *, #151, .T. ) ;
#544 = CARTESIAN_POINT ( 'NONE',  ( 36.92428090845916699, 20.79764482368184986, 0.000000000000000000 ) ) ;
#545 = CARTESIAN_POINT ( 'NONE',  ( 24.37386908212507919, 46.27047426223852966, 0.000000000000000000 ) ) ;
#546 = CARTESIAN_POINT ( 'NONE',  ( -14.28502261206537405, 106.4417115289639497, 28.57004522413073033 ) ) ;
#547 = CARTESIAN_POINT ( 'NONE',  ( 22.20062742315683124, 92.97224974267305697, -44.40125484631366248 ) ) ;
#548 = CARTESIAN_POINT ( 'NONE',  ( 26.20321689103891316, 30.94917458379493524, 0.000000000000000000 ) ) ;
#549 = CARTESIAN_POINT ( 'NONE',  ( -10.03162159818834986, 110.8760462480236555, -1.228519328047882058E-15 ) ) ;
#550 = CARTESIAN_POINT ( 'NONE',  ( -0.3910879220260798372, 104.9672912320454259, -4.789445718944282770E-17 ) ) ;
#551 = CARTESIAN_POINT ( 'NONE',  ( -31.64539161236490372, 62.01512121903379438, 63.29078322472978613 ) ) ;
#552 = CARTESIAN_POINT ( 'NONE',  ( 3.086468832222482916, 114.6170262203957435, 0.000000000000000000 ) ) ;
#553 = CARTESIAN_POINT ( 'NONE',  ( 22.13140133133406451, 58.84893421858518536, 5.420629960212747005E-15 ) ) ;
#554 = CARTESIAN_POINT ( 'NONE',  ( -27.49999901458401652, 5.165780398619439495, -3.367778576976568237E-15 ) ) ;
#555 = VERTEX_POINT ( 'NONE', #369 ) ;
#556 = CARTESIAN_POINT ( 'NONE',  ( 0.5026003116208379584, 114.9934503533469297, -1.005200623241675917 ) ) ;
#557 = CARTESIAN_POINT ( 'NONE',  ( 8.329475628745927657E-13, 114.9999999999999716, 2.040133133463917359E-28 ) ) ;
#558 = CARTESIAN_POINT ( 'NONE',  ( 19.82023728434451826, 68.70224662669808424, 4.854558029722708392E-15 ) ) ;
#559 = CARTESIAN_POINT ( 'NONE',  ( -0.2469314272306927516, 104.9873158898886629, -3.024037819669554230E-17 ) ) ;
#560 = CARTESIAN_POINT ( 'NONE',  ( -0.2163907479956066471, 104.9905982072333614, 0.4327814959912130166 ) ) ;
#561 = CARTESIAN_POINT ( 'NONE',  ( -0.1682816855854301352, 115.0000000000000000, -0.3365633711708602704 ) ) ;
#562 = CARTESIAN_POINT ( 'NONE',  ( 10.03162159818834986, 110.8760462480236555, 2.457038656095764115E-15 ) ) ;
#563 = CARTESIAN_POINT ( 'NONE',  ( -5.821944985844388576, 100.9638734424734565, 11.64388997168877182 ) ) ;
#564 = CARTESIAN_POINT ( 'NONE',  ( -12.08770666787077452, 108.9527019820046689, -1.480317127984006285E-15 ) ) ;
#565 = DIRECTION ( 'NONE',  ( 0.000000000000000000, 0.000000000000000000, 1.000000000000000000 ) ) ;
#566 = CARTESIAN_POINT ( 'NONE',  ( -1.946299194194384241E-12, 104.9999999999999858, -2.383529078353225724E-28 ) ) ;
#567 = CARTESIAN_POINT ( 'NONE',  ( -0.5026003116208380694, 114.9934503533469297, -6.155078628769215933E-17 ) ) ;
#568 = CARTESIAN_POINT ( 'NONE',  ( -27.50000000000018119, -1.907583604965346069E-06, -3.367778697655243396E-15 ) ) ;
#569 = CARTESIAN_POINT ( 'NONE',  ( 3.926730661790368782, 102.9498440671084438, 7.853461323580742004 ) ) ;
#570 = CARTESIAN_POINT ( 'NONE',  ( 22.13140133133406451, 58.84893421858518536, 0.000000000000000000 ) ) ;
#571 = CARTESIAN_POINT ( 'NONE',  ( 27.60284636521528512, 78.15511361868111351, 0.000000000000000000 ) ) ;
#572 = CARTESIAN_POINT ( 'NONE',  ( -24.99563642055401402, 86.05949782867999431, -3.061082613508247420E-15 ) ) ;
#573 = CARTESIAN_POINT ( 'NONE',  ( -7.682404941383225605, 98.52911379696882932, 15.36480988276644410 ) ) ;
#574 = CARTESIAN_POINT ( 'NONE',  ( -10.03162159818834986, 110.8760462480236555, -1.228519328047882058E-15 ) ) ;
#575 = CARTESIAN_POINT ( 'NONE',  ( 7.682404941383224717, 98.52911379696884353, 1.881646524243754896E-15 ) ) ;
#576 = FACE_OUTER_BOUND ( 'NONE', #391, .T. ) ;
#577 = CARTESIAN_POINT ( 'NONE',  ( 2.417267870994371570, 114.7697713102047175, 4.834535741988745805 ) ) ;
#578 = CARTESIAN_POINT ( 'NONE',  ( 37.46714336315368143, 6.249374420304289579, 74.93428672630740550 ) ) ;
#579 =( BOUNDED_SURFACE ( )  B_SPLINE_SURFACE ( 4, 3, ( 
 ( #613, #516, #42, #459 ),
 ( #672, #215, #651, #16 ),
 ( #643, #590, #67, #115 ),
 ( #383, #595, #225, #327 ),
 ( #544, #332, #221, #178 ),
 ( #423, #598, #379, #172 ),
 ( #433, #593, #70, #120 ),
 ( #385, #639, #118, #480 ),
 ( #12, #126, #646, #376 ),
 ( #271, #227, #335, #539 ),
 ( #428, #426, #169, #65 ),
 ( #176, #278, #174, #282 ),
 ( #649, #280, #122, #494 ),
 ( #274, #547, #232, #5 ),
 ( #329, #586, #381, #541 ),
 ( #324, #536, #229, #488 ),
 ( #490, #61, #14, #430 ),
 ( #485, #9, #79, #338 ),
 ( #509, #147, #342, #549 ),
 ( #395, #190, #606, #30 ),
 ( #600, #239, #666, #399 ),
 ( #130, #616, #496, #447 ),
 ( #284, #134, #238, #236 ),
 ( #552, #436, #73, #82 ),
 ( #200, #438, #25, #22 ),
 ( #289, #655, #661, #500 ),
 ( #139, #86, #612, #345 ),
 ( #442, #556, #188, #75 ),
 ( #286, #392, #561, #348 ),
 ( #603, #298, #653, #132 ) ),
 .UNSPECIFIED., .F., .F., .F. ) 
 B_SPLINE_SURFACE_WITH_KNOTS ( ( 5, 1, 1, 1, 1, 1, 1, 1, 1, 1, 1, 1, 1, 1, 1, 1, 1, 1, 1, 1, 1, 1, 1, 1, 1, 1, 5 ),
 ( 4, 4 ),
 ( 0.02897191548834833832, 0.09253687214963325636, 0.1555762641788661915, 0.2188325557915164199, 0.2821139137707467937, 0.3453958934531369263, 0.4086791227194849219, 0.4719636347962525846, 0.5352478009079650878, 0.5985319740762785612, 0.6618162072205436841, 0.7251005433879316175, 0.7883848561907105257, 0.8252285492735238481, 0.8568703340812231506, 0.8866340287501349726, 0.9077287339825451662, 0.9265966986897151703, 0.9424178928030055857, 0.9557795706333223063, 0.9683581900068053416, 0.9736317339854542174, 0.9789052779641032043, 0.9841790170100689350, 0.9894527560560347768, 0.9947263780280173329, 1.000000000000000000 ),
 ( 0.000000000000000000, 1.000000000000000000 ),
 .UNSPECIFIED. ) 
 GEOMETRIC_REPRESENTATION_ITEM ( )  RATIONAL_B_SPLINE_SURFACE ( (
 ( 1.000000000000000000, 0.3333333333333334259, 0.3333333333333334259, 1.000000000000000000),
 ( 1.000000000000000000, 0.3333333333333334259, 0.3333333333333334259, 1.000000000000000000),
 ( 1.000000000000000000, 0.3333333333333334259, 0.3333333333333334259, 1.000000000000000000),
 ( 1.000000000000000000, 0.3333333333333334259, 0.3333333333333334259, 1.000000000000000000),
 ( 1.000000000000000000, 0.3333333333333334259, 0.3333333333333334259, 1.000000000000000000),
 ( 1.000000000000000000, 0.3333333333333334259, 0.3333333333333334259, 1.000000000000000000),
 ( 1.000000000000000000, 0.3333333333333334259, 0.3333333333333334259, 1.000000000000000000),
 ( 1.000000000000000000, 0.3333333333333334259, 0.3333333333333334259, 1.000000000000000000),
 ( 1.000000000000000000, 0.3333333333333334259, 0.3333333333333334259, 1.000000000000000000),
 ( 1.000000000000000000, 0.3333333333333334259, 0.3333333333333334259, 1.000000000000000000),
 ( 1.000000000000000000, 0.3333333333333334259, 0.3333333333333334259, 1.000000000000000000),
 ( 1.000000000000000000, 0.3333333333333334259, 0.3333333333333334259, 1.000000000000000000),
 ( 1.000000000000000000, 0.3333333333333334259, 0.3333333333333334259, 1.000000000000000000),
 ( 1.000000000000000000, 0.3333333333333334259, 0.3333333333333334259, 1.000000000000000000),
 ( 1.000000000000000000, 0.3333333333333334259, 0.3333333333333334259, 1.000000000000000000),
 ( 1.000000000000000000, 0.3333333333333334259, 0.3333333333333334259, 1.000000000000000000),
 ( 1.000000000000000000, 0.3333333333333334259, 0.3333333333333334259, 1.000000000000000000),
 ( 1.000000000000000000, 0.3333333333333334259, 0.3333333333333334259, 1.000000000000000000),
 ( 1.000000000000000000, 0.3333333333333334259, 0.3333333333333334259, 1.000000000000000000),
 ( 1.000000000000000000, 0.3333333333333334259, 0.3333333333333334259, 1.000000000000000000),
 ( 1.000000000000000000, 0.3333333333333334259, 0.3333333333333334259, 1.000000000000000000),
 ( 1.000000000000000000, 0.3333333333333334259, 0.3333333333333334259, 1.000000000000000000),
 ( 1.000000000000000000, 0.3333333333333334259, 0.3333333333333334259, 1.000000000000000000),
 ( 1.000000000000000000, 0.3333333333333334259, 0.3333333333333334259, 1.000000000000000000),
 ( 1.000000000000000000, 0.3333333333333334259, 0.3333333333333334259, 1.000000000000000000),
 ( 1.000000000000000000, 0.3333333333333334259, 0.3333333333333334259, 1.000000000000000000),
 ( 1.000000000000000000, 0.3333333333333334259, 0.3333333333333334259, 1.000000000000000000),
 ( 1.000000000000000000, 0.3333333333333334259, 0.3333333333333334259, 1.000000000000000000),
 ( 1.000000000000000000, 0.3333333333333334259, 0.3333333333333334259, 1.000000000000000000),
 ( 1.000000000000000000, 0.3333333333333334259, 0.3333333333333334259, 1.000000000000000000) ) ) 
 REPRESENTATION_ITEM ( '' )  SURFACE ( )  );
#580 = CARTESIAN_POINT ( 'NONE',  ( 0.6166829568150697938, 104.9210193540301219, 0.000000000000000000 ) ) ;
#581 = PRODUCT_DEFINITION ( 'UNKNOWN', '', #141, #89 ) ;
#582 = CARTESIAN_POINT ( 'NONE',  ( -3.086468832222482916, 114.6170262203957435, -3.779834176049332981E-16 ) ) ;
#583 = CARTESIAN_POINT ( 'NONE',  ( 16.59214072325442757, 103.2641834162360936, 33.18428144650887646 ) ) ;
#584 = CARTESIAN_POINT ( 'NONE',  ( 1.718983956971749549, 114.8858423590293967, 0.000000000000000000 ) ) ;
#585 = CARTESIAN_POINT ( 'NONE',  ( 2.430432937913059366, 104.0914729575759310, -4.860865875826117843 ) ) ;
#586 = CARTESIAN_POINT ( 'NONE',  ( 19.34899955152706141, 98.72170483354537396, -38.69799910305412283 ) ) ;
#587 = ADVANCED_FACE ( 'NONE', ( #576 ), #493, .F. ) ;
#588 = CARTESIAN_POINT ( 'NONE',  ( 0.000000000000000000, -1.907583604965346069E-06, 0.000000000000000000 ) ) ;
#589 = CARTESIAN_POINT ( 'NONE',  ( 1.126889523149363637, 104.7566420921074979, -2.253779046298726385 ) ) ;
#590 = CARTESIAN_POINT ( 'NONE',  ( 37.46714336315370275, 6.249374420304289579, -74.93428672630739129 ) ) ;
#591 = CARTESIAN_POINT ( 'NONE',  ( 3.926730661790370558, 102.9498440671084438, 0.000000000000000000 ) ) ;
#592 = CLOSED_SHELL ( 'NONE', ( #587, #455, #339, #20, #268 ) ) ;
#593 = CARTESIAN_POINT ( 'NONE',  ( 35.51298973387820723, 37.36510694205551886, -71.02597946775641446 ) ) ;
#594 = CARTESIAN_POINT ( 'NONE',  ( -19.82023728434451471, 68.70224662669808424, -39.64047456868902941 ) ) ;
#595 = CARTESIAN_POINT ( 'NONE',  ( 37.31972729657160670, 12.48744494423360152, -74.63945459314319919 ) ) ;
#596 = CARTESIAN_POINT ( 'NONE',  ( -26.20321689103891316, 30.94917458379493524, -3.208968569297466529E-15 ) ) ;
#597 = ORIENTED_EDGE ( 'NONE', *, *, #224, .T. ) ;
#598 = CARTESIAN_POINT ( 'NONE',  ( 36.32542350508995099, 29.08639848986453558, -72.65084701017988777 ) ) ;
#599 = CARTESIAN_POINT ( 'NONE',  ( -22.13140133133406451, 58.84893421858518536, -2.710314980106373502E-15 ) ) ;
#600 = CARTESIAN_POINT ( 'NONE',  ( 6.518137678910544963, 113.2961024464049729, 0.000000000000000000 ) ) ;
#601 = CARTESIAN_POINT ( 'NONE',  ( 27.50000000000018119, -1.907583604965346069E-06, 0.000000000000000000 ) ) ;
#602 = VERTEX_POINT ( 'NONE', #601 ) ;
#603 = CARTESIAN_POINT ( 'NONE',  ( 8.329475628745927657E-13, 114.9999999999999716, 0.000000000000000000 ) ) ;
#604 = PRESENTATION_STYLE_ASSIGNMENT (( #192 ) ) ;
#605 = CARTESIAN_POINT ( 'NONE',  ( -19.82023728434451826, 68.70224662669808424, -2.427279014861354196E-15 ) ) ;
#606 = CARTESIAN_POINT ( 'NONE',  ( -8.222052795606618503, 112.2576286265869072, -16.44410559121323701 ) ) ;
#607 = CARTESIAN_POINT ( 'NONE',  ( 2.417267870994372903, 114.7697713102047175, 5.920598721789992090E-16 ) ) ;
#608 = CARTESIAN_POINT ( 'NONE',  ( 15.43683597845520694, 82.97523569392093634, 3.780934353995573871E-15 ) ) ;
#609 =( NAMED_UNIT ( * ) SI_UNIT ( $, .STERADIAN. ) SOLID_ANGLE_UNIT ( ) );
#610 = ORIENTED_EDGE ( 'NONE', *, *, #97, .T. ) ;
#611 = CARTESIAN_POINT ( 'NONE',  ( -29.79724349199508282, 70.12809412042408042, -3.649109886588607961E-15 ) ) ;
#612 = CARTESIAN_POINT ( 'NONE',  ( -1.055936071880601013, 114.9639777448462468, -2.111872143761202025 ) ) ;
#613 = CARTESIAN_POINT ( 'NONE',  ( 37.50000000000000000, 1.058791184067875424E-22, 0.000000000000000000 ) ) ;
#614 = CARTESIAN_POINT ( 'NONE',  ( 26.20321689103891316, 30.94917458379493524, 6.417937138594933058E-15 ) ) ;
#615 = CARTESIAN_POINT ( 'NONE',  ( -3.926730661790371446, 102.9498440671084438, 7.853461323580740228 ) ) ;
#616 = CARTESIAN_POINT ( 'NONE',  ( 5.115383434812569519, 113.9551157002085091, -10.23076686962513726 ) ) ;
#617 = FACE_OUTER_BOUND ( 'NONE', #249, .T. ) ;
#618 = CARTESIAN_POINT ( 'NONE',  ( -22.13140133133406451, 58.84893421858518536, -2.710314980106373502E-15 ) ) ;
#619 = CARTESIAN_POINT ( 'NONE',  ( -0.8603087164077422022, 104.8536745828165522, -1.053574315827309485E-16 ) ) ;
#620 = CARTESIAN_POINT ( 'NONE',  ( 3.926730661790370558, 102.9498440671084438, 0.000000000000000000 ) ) ;
#621 = CARTESIAN_POINT ( 'NONE',  ( 22.13140133133405385, 58.84893421858518536, 44.26280266266812902 ) ) ;
#622 = CARTESIAN_POINT ( 'NONE',  ( -0.6166829568150699048, 104.9210193540301077, 1.233365913630139366 ) ) ;
#623 = CARTESIAN_POINT ( 'NONE',  ( -0.02889587933406564946, 104.9999999999999716, -0.05779175866813130585 ) ) ;
#624 = CARTESIAN_POINT ( 'NONE',  ( 3.086468832222482916, 114.6170262203957435, 0.000000000000000000 ) ) ;
#625 = CARTESIAN_POINT ( 'NONE',  ( 0.6166829568150697938, 104.9210193540301219, 1.510437618304601472E-16 ) ) ;
#626 = CARTESIAN_POINT ( 'NONE',  ( -0.07435801584409075515, 104.9992606392339809, -9.106230609441391126E-18 ) ) ;
#627 = CARTESIAN_POINT ( 'NONE',  ( 6.518137678910544963, 113.2961024464049729, 0.000000000000000000 ) ) ;
#628 = CARTESIAN_POINT ( 'NONE',  ( 7.682404941383220276, 98.52911379696882932, 15.36480988276644588 ) ) ;
#629 = CARTESIAN_POINT ( 'NONE',  ( 0.8603087164077422022, 104.8536745828165522, 0.000000000000000000 ) ) ;
#630 = CARTESIAN_POINT ( 'NONE',  ( 6.518137678910542299, 113.2961024464049871, 13.03627535782108815 ) ) ;
#631 = CARTESIAN_POINT ( 'NONE',  ( 3.988835411096326666, 114.3641668309545594, 0.000000000000000000 ) ) ;
#632 = B_SPLINE_CURVE_WITH_KNOTS ( 'NONE', 3,
 ( #315, #458, #671, #514, #150, #96, #407, #1, #629, #528, #357, #54, #620, #165, #301, #471, #204, #91, #305, #210, #570, #161, #519, #526, #46, #360 ),
 .UNSPECIFIED., .F., .F.,
 ( 4, 1, 1, 1, 1, 1, 1, 1, 1, 1, 1, 1, 1, 1, 1, 1, 1, 1, 1, 1, 1, 1, 1, 4 ),
 ( 0.02897191548834833832, 0.03276499394347198030, 0.03655807239859561880, 0.04035115085371925731, 0.04414422930884289581, 0.04793730776396653431, 0.05173038621909017282, 0.05931654312933744982, 0.06690270003958473377, 0.07448885694983201078, 0.08966117077032656479, 0.1200057984113156728, 0.1503504260523047809, 0.1806950536932939166, 0.2110396813342830247, 0.2717289366162612407, 0.3324181918982395123, 0.3931074471802177284, 0.4537967024621959444, 0.5144859577441741605, 0.6358644683081307036, 0.7572429788720871358, 0.8786214894360435679, 1.000000000000000000 ),
 .UNSPECIFIED. ) ;
#633 = EDGE_CURVE ( 'NONE', #492, #28, #467, .T. ) ;
#634 = CARTESIAN_POINT ( 'NONE',  ( -0.1682816855854301630, 114.9999999999999858, -2.060856276073183242E-17 ) ) ;
#635 = CARTESIAN_POINT ( 'NONE',  ( 0.1682816855854300797, 115.0000000000000000, 0.3365633711708603260 ) ) ;
#636 = CARTESIAN_POINT ( 'NONE',  ( 0.1682816855854301630, 114.9999999999999858, 0.000000000000000000 ) ) ;
#637 = CARTESIAN_POINT ( 'NONE',  ( 19.82023728434451471, 68.70224662669808424, -39.64047456868902941 ) ) ;
#638 = EDGE_CURVE ( 'NONE', #347, #77, #63, .T. ) ;
#639 = CARTESIAN_POINT ( 'NONE',  ( 34.47483639530960176, 45.61961002895164086, -68.94967279061918930 ) ) ;
#640 = CARTESIAN_POINT ( 'NONE',  ( -14.28502261206536872, 106.4417115289639497, -1.749410721761341641E-15 ) ) ;
#641 = CARTESIAN_POINT ( 'NONE',  ( 5.115383434812569519, 113.9551157002084949, 0.000000000000000000 ) ) ;
#642 = CARTESIAN_POINT ( 'NONE',  ( -0.4961823954221951660, 104.9477921819924688, -6.076481823470577236E-17 ) ) ;
#643 = CARTESIAN_POINT ( 'NONE',  ( 37.46714336315370275, 6.249374420304287803, 0.000000000000000000 ) ) ;
#644 = CARTESIAN_POINT ( 'NONE',  ( 14.28502261206536872, 106.4417115289639497, 3.498821443522683282E-15 ) ) ;
#645 = CARTESIAN_POINT ( 'NONE',  ( 7.682404941383224717, 98.52911379696884353, 0.000000000000000000 ) ) ;
#646 = CARTESIAN_POINT ( 'NONE',  ( -33.19362663274322500, 53.84022639650297748, -66.38725326548645000 ) ) ;
#647 = CARTESIAN_POINT ( 'NONE',  ( -2.430432937913058922, 104.0914729575759310, -4.860865875826117843 ) ) ;
#648 = AXIS2_PLACEMENT_3D ( 'NONE', #680, #216, #269 ) ;
#649 = CARTESIAN_POINT ( 'NONE',  ( 24.99563642055401402, 86.05949782867999431, 0.000000000000000000 ) ) ;
#650 = CARTESIAN_POINT ( 'NONE',  ( -15.43683597845520694, 82.97523569392093634, -1.890467176997786936E-15 ) ) ;
#651 = CARTESIAN_POINT ( 'NONE',  ( -37.49999960152840828, 2.088881362321191482, -74.99999920305681655 ) ) ;
#652 = CARTESIAN_POINT ( 'NONE',  ( -22.13140133133405385, 58.84893421858518536, -44.26280266266812191 ) ) ;
#653 = CARTESIAN_POINT ( 'NONE',  ( -8.329475628745926648E-13, 114.9999999999999716, -1.665895125749185330E-12 ) ) ;
#654 = EDGE_LOOP ( 'NONE', ( #543, #597 ) ) ;
#655 = CARTESIAN_POINT ( 'NONE',  ( 1.718983956971749549, 114.8858423590293967, -3.437967913943498210 ) ) ;
#656 = CARTESIAN_POINT ( 'NONE',  ( -5.821944985844387688, 100.9638734424734423, -7.129826291726311661E-16 ) ) ;
#657 = CARTESIAN_POINT ( 'NONE',  ( -37.46714336315370275, 6.249374420304287803, -4.588401719288117579E-15 ) ) ;
#658 = CARTESIAN_POINT ( 'NONE',  ( -6.518137678910544963, 113.2961024464049729, -7.982416444879557405E-16 ) ) ;
#659 = CARTESIAN_POINT ( 'NONE',  ( 27.50000000000018119, -1.907583608838430902E-06, 6.735557395310486791E-15 ) ) ;
#660 = CARTESIAN_POINT ( 'NONE',  ( -27.60284636521529222, 78.15511361868111351, 55.20569273043054892 ) ) ;
#661 = CARTESIAN_POINT ( 'NONE',  ( -1.718983956971749105, 114.8858423590293967, -3.437967913943498210 ) ) ;
#662 = CARTESIAN_POINT ( 'NONE',  ( 3.988835411096325334, 114.3641668309545594, 7.977670822192654221 ) ) ;
#663 = CARTESIAN_POINT ( 'NONE',  ( 24.37386908212506853, 46.27047426223852256, 48.74773816425015838 ) ) ;
#664 = APPLICATION_PROTOCOL_DEFINITION ( 'draft international standard', 'automotive_design', 1998, #248 ) ;
#665 = CARTESIAN_POINT ( 'NONE',  ( -1.568237283953980876, 104.5643176427860226, 3.136474567907960420 ) ) ;
#666 = CARTESIAN_POINT ( 'NONE',  ( -6.518137678910544075, 113.2961024464049871, -13.03627535782108815 ) ) ;
#667 = PRESENTATION_LAYER_ASSIGNMENT (  '', '', ( #484 ) ) ;
#668 = CARTESIAN_POINT ( 'NONE',  ( 0.5026003116208380694, 114.9934503533469297, 1.231015725753843187E-16 ) ) ;
#669 = CARTESIAN_POINT ( 'NONE',  ( -27.49999901458401652, 5.165780398619439495, -3.367778576976568237E-15 ) ) ;
#670 = CARTESIAN_POINT ( 'NONE',  ( 0.4961823954221951660, 104.9477921819924688, 1.215296364694115447E-16 ) ) ;
#671 = CARTESIAN_POINT ( 'NONE',  ( 0.07435801584409075515, 104.9992606392339809, 0.000000000000000000 ) ) ;
#672 = CARTESIAN_POINT ( 'NONE',  ( 37.49999960152841538, 2.088881362321191482, 0.000000000000000000 ) ) ;
#673 = CARTESIAN_POINT ( 'NONE',  ( 19.82023728434450405, 68.70224662669808424, 39.64047456868902941 ) ) ;
#674 = B_SPLINE_CURVE_WITH_KNOTS ( 'NONE', 4,
 ( #38, #303, #517, #219, #59, #534, #265, #272, #362, #481, #6, #571, #530, #222, #113, #170, #424, #10, #56, #102, #627, #641, #631, #624, #312, #584, #321, #377, #636, #418 ),
 .UNSPECIFIED., .F., .F.,
 ( 5, 1, 1, 1, 1, 1, 1, 1, 1, 1, 1, 1, 1, 1, 1, 1, 1, 1, 1, 1, 1, 1, 1, 1, 1, 1, 5 ),
 ( 0.02897191548834833832, 0.09253687214963325636, 0.1555762641788661915, 0.2188325557915164199, 0.2821139137707467937, 0.3453958934531369263, 0.4086791227194849219, 0.4719636347962525846, 0.5352478009079650878, 0.5985319740762785612, 0.6618162072205436841, 0.7251005433879316175, 0.7883848561907105257, 0.8252285492735238481, 0.8568703340812231506, 0.8866340287501349726, 0.9077287339825451662, 0.9265966986897151703, 0.9424178928030055857, 0.9557795706333223063, 0.9683581900068053416, 0.9736317339854542174, 0.9789052779641032043, 0.9841790170100689350, 0.9894527560560347768, 0.9947263780280173329, 1.000000000000000000 ),
 .UNSPECIFIED. ) ;
#675 = CARTESIAN_POINT ( 'NONE',  ( -0.3910879220260798372, 104.9672912320454259, -4.789445718944282770E-17 ) ) ;
#676 = CARTESIAN_POINT ( 'NONE',  ( -1.946299194194384241E-12, 104.9999999999999858, -2.383529078353225724E-28 ) ) ;
#677 = CARTESIAN_POINT ( 'NONE',  ( 27.49999901458401652, 5.165780398619439495, 6.735557153953136473E-15 ) ) ;
#678 = CARTESIAN_POINT ( 'NONE',  ( -0.6166829568150697938, 104.9210193540301219, -7.552188091523007361E-17 ) ) ;
#679 = CARTESIAN_POINT ( 'NONE',  ( -0.2163907479956065083, 104.9905982072333614, -0.4327814959912130166 ) ) ;
#680 = CARTESIAN_POINT ( 'NONE',  ( 27.50000000000018119, -9.537918044192154510E-07, 0.000000000000000000 ) ) ;
#681 = COLOUR_RGB ( '',0.7921568627450980005, 0.8196078431372548767, 0.9333333333333333481 ) ;
#682 = CARTESIAN_POINT ( 'NONE',  ( -1.946299194194384645E-12, 104.9999999999999716, 3.892598388388767674E-12 ) ) ;
#683 = CARTESIAN_POINT ( 'NONE',  ( -1.718983956971749549, 114.8858423590293967, -2.105148200691104649E-16 ) ) ;
#684 = PLANE ( 'NONE',  #648 ) ;
#685 = CARTESIAN_POINT ( 'NONE',  ( -19.34899955152706141, 98.72170483354535975, -2.369569036748119061E-15 ) ) ;
ENDSEC;
END-ISO-10303-21;
